<svg id="Layer_1" data-name="Layer 1" xmlns="http://www.w3.org/2000/svg" viewBox="0 0 816 700"><defs><style>.cls-1{fill:#f5f5f5;}.cls-2{fill:none;stroke:#ffac73;stroke-miterlimit:10;stroke-width:2px;}.cls-3{fill:#ffb07b;}.cls-4{fill:#f18033;}</style></defs><title>accompagna</title><path id="Rectangle_33" data-name="Rectangle 33" class="cls-1" d="M364.68,102.16H713.24a37.26,37.26,0,0,1,37.24,37.24h0a37.26,37.26,0,0,1-37.24,37.25H364.68a37.26,37.26,0,0,1-37.24-37.25h0A37.26,37.26,0,0,1,364.68,102.16Z"/><path id="Rectangle_31" data-name="Rectangle 31" class="cls-1" d="M405.89,524.13H710.72a56.63,56.63,0,0,1,56.55,56.55h0a56.63,56.63,0,0,1-56.55,56.55H405.89a56.63,56.63,0,0,1-56.55-56.55h0A56.63,56.63,0,0,1,405.89,524.13Z"/><path id="Rectangle_32" data-name="Rectangle 32" class="cls-1" d="M75.85,318h285c29.43,0,53.15,21.25,53.15,47.59h0c0,26.35-23.72,47.59-53.15,47.59h-285c-29.43,0-53.15-21.24-53.15-47.59h0C22.7,339.41,46.58,318,75.85,318Z"/><circle class="cls-2" cx="172.41" cy="185.66" r="12.32"/><circle class="cls-2" cx="669.12" cy="508.13" r="12.32"/><polygon class="cls-2" points="320.17 654.86 308.81 652.22 297.44 649.57 305.42 641.05 313.39 632.53 316.78 643.7 320.17 654.86"/><path class="cls-3" d="M271.94,387.09c-.73-17.93-2.27-36.86.67-54.8,5.85-10,13.86-19,24.73-23l3-3c7.95-4,14.09-10,23.08-13.09,1,0,.88,2,.83,3,.63-13,1.61-25,3.26-37.95-21.34,14.12-42.71,24.22-62.92,39.27-1.07,2-3.05,3-5.08,5-10.13,10-14.27,23-16.19,36.9-1,11.94,2.17,23.88,2.49,35.82a7.43,7.43,0,0,1-1.84,5c-29.12,17.95-59.67,30.87-91.21,46.7-6.11,3-14.28,5.93-18.55,12.86,1.79,7.92,6.61,21.79,17,15.87,41.51-23.7,80.13-39.58,118.94-62.52.95-1,.83-4,1.74-6Z"/><path class="cls-3" d="M546.18,363.58c.52,15.13-17.74,13.14-28.86,13.16a7.23,7.23,0,0,0-3.94,2c-1.16,18.13,6.83,38.28-6.41,52.37-8.54,8.05-20.45,8-32.39,8a2,2,0,0,0-1.88,2c-.49,9,0,18.09-3.61,27.13-1.81,4-3.63,8-7.5,11-1.95,1-2.91,2-4.87,3-3.91,2-6.84,4-10.82,4-31.87-.11-62.95.79-95.29.68-3,0-6,1-9.07,2-15.05,8.94-29.32,17.87-45,27.77-16.74,11.89-34.64,19.76-50.1,33.6-6.45,3.94-3.29,13.92,3.47,17a20.82,20.82,0,0,0,7.37-1.94c32.6-16.71,62.65-35.5,93.31-51.35,30.45-1.86,60.62,1.28,90.63,1.42,26.07-.87,50.84-17.85,56.68-44,.9-2,1.81-4,3.75-5,15.56-6,28.94-16.05,36.25-31.17,3.6-9.07,4.23-18.15,4.82-28.23,3.85-4,9.83-5,14.75-8.08,4.86-5.05,8.7-11.11,14.66-15.16-7.06,1-15.06,3-20.29-2-4.23-5-6.52-12.1-5.71-18.15Z"/><path class="cls-4" d="M677,303.34c-4-3-8.9-1-12.77,1C641,318.4,619.88,329.41,596.3,343.38c-4.91,3-9.87,4-14.83,8-2,1-6,0-6-3-.11-12.05-1.51-24.11-8.92-34.16a41.83,41.83,0,0,0-25.82-17.1c-33.27-5.06-64.24-1.1-96.66-4.14-11,2-22.14,2-32.21,4.92a7.39,7.39,0,0,0-1.92,5c.11,5,.18,9,.24,13.93-1.9,11.93-.86,22.88-3.15,34.8-2.27,10.93-8.88,19.85-19.35,22.77a52.45,52.45,0,0,1-17.59-.11c-1,0-.95-2-2-2-8.21-2-13.14-10-14-16.94-3.35-30.76-.13-61.48,0-92.23,1-7.93,5-15.87,11.88-20.84,8.84-6,16.64-10.95,25.39-16.94,12.64-8,25.27-12,39-12,27.42-1.08,55.1.83,82.95.75,16.77-4.05,30.4-15.12,45.33-26.22,18.91-12.13,36.13-22.27,55.27-31.44,3-1,5.06-4.06,4.14-7.07-.86-7-1.41-17.1-10.14-18-17.25,10.19-35.65,19.35-52.92,30.48-15.18,8.12-28.23,16.2-43.11,23.27-6.95,3-14.85,1.07-22.73,1.11-22.67-1.9-46.17-.78-68.55.31-27.29,1.13-49.6,18.13-72.08,35-10.76,8.95-18.84,20.85-20.17,34.71-5.81,33.67-2.62,66.34-4.5,100,3.79,28.71,32.2,53.72,64.07,47,16.65-3.85,30.9-12.71,39.9-26.6,11.21-16.86,8.33-34.82,9.07-52.74,0-2,2-4,3-4,10.16-1,21.37,1.06,31.53,2.09,22.36,2.06,44.48.13,66.63,3.2,15.43,11.08,4.76,32.09,7,49.14,1.49,12,14.32,16.14,24.72,11.19,14.46-5.93,28.73-14.89,42.62-22.86,22.85-14,44-25,66.1-41.05.95-1,2.91-1,3.84-3,.82-6.06-3.2-10.11-5.31-15.17Z"/></svg>