<?xml version="1.0" encoding="utf-8"?>
<!-- Generator: Adobe Illustrator 23.1.0, SVG Export Plug-In . SVG Version: 6.00 Build 0)  -->
<svg version="1.1" id="Layer_1" xmlns="http://www.w3.org/2000/svg" xmlns:xlink="http://www.w3.org/1999/xlink" x="0px" y="0px"
	 viewBox="0 0 657 389.2" style="enable-background:new 0 0 657 389.2;" xml:space="preserve">
<style type="text/css">
	.st0{opacity:0.24;}
	.st1{fill:url(#SVGID_1_);}
	.st2{fill:url(#SVGID_2_);}
	.st3{fill:#F5F5F5;}
	.st4{fill:url(#SVGID_3_);}
	.st5{fill:url(#SVGID_4_);}
	.st6{fill:#1C6EB8;}
	.st7{fill:#4697D3;}
</style>
<g class="st0">
	
		<linearGradient id="SVGID_1_" gradientUnits="userSpaceOnUse" x1="109.2595" y1="-541.3" x2="131.5595" y2="-541.3" gradientTransform="matrix(1 0 0 -1 0 -296)">
		<stop  offset="0" style="stop-color:#1C6EB8"/>
		<stop  offset="1" style="stop-color:#97ABFF"/>
	</linearGradient>
	<path class="st1" d="M129.8,246.8l-18.5,0.9c-1,0-1.9-0.8-2-1.8l0,0c0-1,0.8-1.9,1.8-2l18.5-0.9c1,0,1.9,0.8,2,1.8l0,0
		C131.6,245.9,130.8,246.8,129.8,246.8z"/>
	
		<linearGradient id="SVGID_2_" gradientUnits="userSpaceOnUse" x1="118.0595" y1="-541.3" x2="122.7595" y2="-541.3" gradientTransform="matrix(1 0 0 -1 0 -296)">
		<stop  offset="0" style="stop-color:#1C6EB8"/>
		<stop  offset="1" style="stop-color:#97ABFF"/>
	</linearGradient>
	<path class="st2" d="M119,254.6l-0.9-18.5c0-1,0.8-1.9,1.8-2l0,0c1,0,1.9,0.8,2,1.8l0.9,18.5c0,1-0.8,1.9-1.8,2l0,0
		C119.9,256.4,119.1,255.6,119,254.6z"/>
</g>
<path id="Rectangle_33_1_" class="st3" d="M28,251.3h252.7c14.9,0,27,12.1,27,27l0,0c0,14.9-12.1,27-27,27H28c-14.9,0-27-12.1-27-27
	l0,0C1,263.4,13.1,251.3,28,251.3z"/>
<g class="st0">
	
		<linearGradient id="SVGID_3_" gradientUnits="userSpaceOnUse" x1="479.3" y1="-612.7" x2="510.9" y2="-612.7" gradientTransform="matrix(1 0 0 -1 0 -296)">
		<stop  offset="0" style="stop-color:#1C6EB8"/>
		<stop  offset="1" style="stop-color:#97ABFF"/>
	</linearGradient>
	<path class="st4" d="M495.1,305.4c6.3,0,11.3,5.1,11.3,11.3c0,6.3-5.1,11.3-11.3,11.3s-11.3-5.1-11.3-11.3
		C483.8,310.4,488.8,305.4,495.1,305.4 M495.1,300.9c-8.7,0-15.8,7.1-15.8,15.8s7.1,15.8,15.8,15.8c8.7,0,15.8-7.1,15.8-15.8
		S503.8,300.9,495.1,300.9L495.1,300.9z"/>
</g>
<g class="st0">
	
		<linearGradient id="SVGID_4_" gradientUnits="userSpaceOnUse" x1="163.9149" y1="-377.3" x2="185.1149" y2="-377.3" gradientTransform="matrix(1 0 0 -1 0 -296)">
		<stop  offset="0" style="stop-color:#1C6EB8"/>
		<stop  offset="1" style="stop-color:#97ABFF"/>
	</linearGradient>
	<path class="st5" d="M174.5,73.7c4.2,0,7.6,3.4,7.6,7.6s-3.4,7.6-7.6,7.6s-7.6-3.4-7.6-7.6S170.3,73.7,174.5,73.7 M174.5,70.7
		c-5.9,0-10.6,4.8-10.6,10.6s4.8,10.6,10.6,10.6c5.8,0,10.6-4.8,10.6-10.6S180.3,70.7,174.5,70.7L174.5,70.7z"/>
</g>
<path id="Rectangle_31_1_" class="st3" d="M134,93.2h221c22.6,0,41,18.4,41,41l0,0c0,22.6-18.4,41-41,41H134c-22.6,0-41-18.4-41-41
	l0,0C93,111.6,111.4,93.2,134,93.2z"/>
<path id="Rectangle_32_1_" class="st3" d="M432.7,210.8h185c19.1,0,34.5,15.4,34.5,34.5l0,0c0,19.1-15.4,34.5-34.5,34.5h-185
	c-19.1,0-34.5-15.4-34.5-34.5l0,0C398.2,226.3,413.7,210.8,432.7,210.8z"/>
<path class="st6" d="M452,104.2c2-10,16-6,24-7c0-6,1-13-1-19c-3-8-11-13-19-13c-6,1-12,4-15,9c-8,18-2,38-5,58c0,4-7,5-10,2
	c-1-1-2-3-2-5c1-16,0-31,0-47c1-5,2-11,6-16c-46-1-93-1-139-3c-13,0-25-2-38,2c-7,2-12,8-13,16c-1,28,1,57-1,85c-1,33-2,66-3,99
	c45,0,89,1,134,6c3,0,6,4,3,8c-1,2-4,4-6,4c-56-2-112-6-168-3c-1,12,1,25,13,30c52,2,103,0,155,4c2,0,5,2,6,4c1,3,0,6-3,8
	c-4,2-9,1-14,1c-44-2-87-4-131-2c-2,0-5,0-7,0c-15-1-29-11-31-26c-1-11-5-24,3-33c11-2,22-1,33-1c1-63,5-127,4-190c3-14,15-24,28-24
	c69-3,138,1,207,1c10,1,18,8,23,17c6,11,4,23,4,35c0,2-1,5-3,6c-9,3-18,1-27,1C456,110.2,452,110.2,452,104.2L452,104.2z"/>
<path class="st7" d="M475,200.2c4-9,1-19-5-26c-6-5-13-7-21-7c-2-1-4-2-6-4c-5-7-12-10-20-10c-9,0-16,6-22,12c-10,1-21,2-28,10
	c-5,7-5,16-5,24c-6,10-13,21-7,33c3,6,9,8,14,12c4,4,4,11,8,16c7,8,17,12,27,9c4-2,8-4,12-3c8,4,17,5,26,2c10-5,12-14,17-23
	c9-2,15-10,18-18C486,217.2,479,209.2,475,200.2z M463,232.2c-9,3-13,12-16,20c-2,5-9,7-14,4c-10-6-21,0-32,0c-3,0-7-2-8-5
	c-3-9-9-18-18-22c-3-2-5-8-2-12c7-8,10-17,8-27c0-6,4-9,9-9c10-1,19-5,26-12c10-8,17,5,25,10c4,2,9,2,14,2s9,6,8,10c-1,9-1,17,5,24
	C472,221.2,469,229.2,463,232.2z"/>
<path class="st7" d="M391,339.2c1,4,5,9,10,6c6-3,13-8,18-13c5,2,9,5,13,8c3,3,6,6,11,6c2,0,3-2,4-3s-1-4,2-4c-1-16-1-31-1-47
	c0-4-3-7-7-7c-2,0-5,2-6,4c-3,12,0,25-1,37c-3-3-7-4-10-8c-1-1-3-1-5-1c-6,1-9,6-14,9c-1-12,2-23-1-35c0-2-1-4-3-6c-3-2-9,0-9,3
	C390,305.2,391,322.2,391,339.2L391,339.2z"/>
<path class="st6" d="M388,104.2c-37-2-73-3-110-4c-3,0-7,1-7,7c1,2,2,5,4,6c29,3,57,2,86,4c10,0,20,1,30,0c4-1,3-6,3-9
	C393,106.2,393,103.2,388,104.2L388,104.2z"/>
<path class="st6" d="M358,142.2c-28-1-56-5-84-2c-1,0-3,3-4,5c0,4,3,7,7,7c26,1,52,1,79,4c3,0,6-1,8-3
	C366,149.2,364,142.2,358,142.2L358,142.2z"/>
<path class="st6" d="M332,180.2c-19-2-37-2-56-3c-2,0-4,1-6,3c-2,3-2,9,2,9c20,4,39,3,59,4c5,0,8-5,7-9
	C337,182.2,337,179.2,332,180.2L332,180.2z"/>
<path class="st6" d="M324,218.2c-17,0-33-3-50-2c-2,0-4,1-6,3c-3,4,1,10,5,10c18,1,36,5,54,2c3-1,3-5,3-8
	C329,220.2,326,219.2,324,218.2L324,218.2z"/>
</svg>
