<?xml version="1.0" encoding="utf-8"?>
<!-- Generator: Adobe Illustrator 23.1.0, SVG Export Plug-In . SVG Version: 6.00 Build 0)  -->
<svg version="1.1" id="Layer_1" xmlns="http://www.w3.org/2000/svg" xmlns:xlink="http://www.w3.org/1999/xlink" x="0px" y="0px"
	 viewBox="0 0 657 389.2" style="enable-background:new 0 0 657 389.2;" xml:space="preserve">
<style type="text/css">
	.st0{opacity:0.22;}
	.st1{fill:#FCB91C;}
	.st2{opacity:0.27;}
	.st3{fill:#F5F5F5;}
	.st4{fill:#F18033;}
	.st5{opacity:0.2;}
	.st6{fill:#FFAC73;}
</style>
<g class="st0">
	<path class="st1" d="M506.4,278.3c6.3,0,11.3,5.1,11.3,11.3c0,6.3-5.1,11.3-11.3,11.3s-11.3-5.1-11.3-11.3
		C495.1,283.3,500.1,278.3,506.4,278.3 M506.4,273.8c-8.7,0-15.8,7.1-15.8,15.8s7.1,15.8,15.8,15.8s15.8-7.1,15.8-15.8
		S515.1,273.8,506.4,273.8L506.4,273.8z"/>
</g>
<g class="st2">
	<path class="st1" d="M130.8,78.3c4.2,0,7.6,3.4,7.6,7.6s-3.4,7.6-7.6,7.6s-7.6-3.4-7.6-7.6S126.6,78.3,130.8,78.3 M130.8,75.3
		c-5.9,0-10.6,4.8-10.6,10.6s4.8,10.6,10.6,10.6c5.8,0,10.6-4.8,10.6-10.6S136.6,75.3,130.8,75.3L130.8,75.3z"/>
</g>
<path id="Rectangle_31_1_" class="st3" d="M109,101.2h221c22.6,0,41,18.4,41,41l0,0c0,22.6-18.4,41-41,41H109c-22.6,0-41-18.4-41-41
	l0,0C68,119.6,86.4,101.2,109,101.2z"/>
<path id="Rectangle_32_1_" class="st3" d="M437.5,210.2h185c19.1,0,34.5,15.4,34.5,34.5l0,0c0,19.1-15.4,34.5-34.5,34.5h-185
	c-19.1,0-34.5-15.4-34.5-34.5l0,0C403,225.7,418.5,210.2,437.5,210.2z"/>
<path id="Rectangle_33_1_" class="st3" d="M27.3,253.2H280c14.9,0,27,12.1,27,27l0,0c0,14.9-12.1,27-27,27H27.3
	c-14.9,0-27-12.1-27-27l0,0C0.3,265.3,12.4,253.2,27.3,253.2z"/>
<path class="st4" d="M441.4,104.6c-5.1,3.6-9.7,6.8-14.2,10c-1.8,1.3-3.5,2.9-5.4,3.9c-2.6,1.3-2.6,3-2,5.4
	c3.3,15.2,6.3,30.5,9.5,45.7c0.1,0.7,0.5,1.6,0.2,2.1c-3.3,5.6,1.4,9.1,3.7,12.8c7.9,13.1,13.4,27,15.8,42
	c5.9,36.9-1.7,70.5-25.4,99.8c-14.1,17.4-32.5,28.6-54.1,34.1c-37.4,9.5-73.5,5.9-107.1-13.7c-24.3-14.1-41.5-34.6-49.9-61.7
	c-5.8-18.8-6.3-37.8-1.6-57c1.3-5.4,2.2-11,4-16.2c1.6-4.8,1.2-9,0.2-14c-3-14.9-4.7-30-6.7-45c-0.3-2.5-1.3-3.5-3.7-4.3
	c-14.1-4.8-28.1-9.8-42.1-14.7c-1.8-0.6-3.6-1.5-5.5-1.8c-4.4-0.7-7.1-3.9-9.6-7c-2.4-2.9-1.5-6.8,1.9-8.9
	c25.9-15.8,51.8-31.6,77.8-47.2c19.1-11.4,38.6-22.2,57.8-33.6c10.1-6,20.7-7.5,31.7-4.7c20.2,5.1,40.4,10.4,60.5,16
	c29.2,8.2,58.3,16.7,87.5,25c7.1,2,9,7.2,3.8,12.4c-4,4.1-9,7.3-13.6,10.7c-5.4,4-4.4,2.1-3.2,8.2c2.9,14.6,5.6,29.2,8.3,43.8
	c0.4,2,1,3.1,3,4.1c11.8,5.5,16.8,18,12.2,30.2c-2.1,5.6-4.1,11.2-6.5,16.7c-1.1,2.5-2.7,4.7-4.3,7c-1.4,2-3.4,2.9-5.9,2.3
	c-2.5-0.6-4.5-2.2-5.1-4.8c-1.5-7.3-6.2-12.9-9.6-19.2c-3.8-7-6-14.3-2.8-22.1c0.8-2,2.1-4.2,3.8-5.4c3-2,3.2-4.2,2.7-7.4
	c-2-13.2-3.7-26.4-5.6-39.6C441.8,107.6,441.6,106.5,441.4,104.6z M314.8,169c-1.3,0.2-2.3,0.2-3.2,0.5c-8.6,2.3-17.2,4.2-25.6,7
	c-21,6.9-41.7,14.5-60.3,26.8c-0.9,0.6-1.9,1.9-2.1,2.9c-0.9,6.4-1.8,12.8-2.3,19.3c-0.8,10.8-2.2,21.8-1.6,32.6
	c1.9,33.3,18.6,58.1,46.3,75.5c30.9,19.3,64.4,23.7,99.5,14.7c17.4-4.5,33-12.6,45.1-26.2c23.8-26.6,31.5-58,26.2-92.8
	c-2.4-16.2-8.3-31.4-14.5-46.4c-1.8-4.4-4.5-6.3-8.2-7.4c-1.6,5.3-3.2,10.5-4.8,15.7c-2.7,8.8-8.5,15.1-16.6,19.3
	c-6.9,3.6-14.5,4.5-22.1,5.3c-7.5,0.7-8.8,2.9-6,9.9c0.3,0.7,0.5,1.3,0.9,2c2.4,4.9,4.9,6.1,10.3,5.5c3.1-0.4,6.3-0.9,9.4-0.9
	c9.3,0.1,15.5,8.1,12.6,16.9c-1.5,4.5-4.3,8.7-6.9,12.8c-2.5,3.8-5.6,7.2-8.4,10.8c-2.6,3.3-3.5,7-2.7,11.2
	c0.8,4.4-0.1,8.7-1.8,12.8c-2.5,6-5.4,11.9-7.1,18.2c-2,7.2-5.4,13-11.2,17.6c-11.2,8.9-28.2,7.2-37.2-3c-5.3-6.1-6.2-13.4-5.4-20.9
	c0.5-5.1,1.7-10.2,2.6-15.3c1-6.1,1-6.4-4.6-8.9c-6.4-2.9-11.4-6.8-12.6-14.4c-0.6-4-3.2-4.7-6.4-2.2c-2.3,1.7-4.3,3.7-6.5,5.5
	c-8,6.5-17.6,5.9-24.6-1.7c-5.7-6.2-7.9-13.9-8.3-22.1c-0.5-10.8,2.5-20.7,7.7-30c9.3-16.6,26.4-22.3,43.6-14.5
	c2.5,1.1,4.8,2.6,7.3,3.9c3.5,1.8,6.8,1.7,10.1-0.6c4.6-3.3,7.9-7.6,9.9-12.9c1.4-3.8,0.7-6-2.7-8.1c-2.7-1.7-5.6-2.9-8.4-4.3
	C318.4,180.1,313.8,176.6,314.8,169z M225.2,189.4c1.2-0.6,1.9-1,2.7-1.4c8.5-4.2,16.8-8.9,25.5-12.5c30.4-12.7,61.8-22.1,95.1-22.7
	c21.5-0.4,42.9,1.7,63.6,8.4c0.6,0.2,1.3,0.2,2.2,0.4c-0.2-1.3-0.3-2.3-0.5-3.3c-1.9-11-3.7-22.1-5.7-33.1
	c-0.8-4.4-0.2-8.7-2.2-13.2s-4.7-7.4-8.8-9.4c-6.8-3.2-14.1-4.2-21.4-4.2c-15.3,0.1-30.5,0.6-45.8,1.1c-21.7,0.8-43,3.9-63.8,10
	c-17.5,5.1-33,14.2-47.7,24.9c-2.5,1.8-3.7,3.3-2.1,6.4c0.9,1.7,1.3,3.7,1.6,5.6c1.8,11,3.5,22.1,5.3,33.2
	C223.8,182.7,224.5,185.8,225.2,189.4z M332.2,166c-2.7,0.4-5.5,0.6-8.2,1.2c-1,0.2-2.6,1.2-2.6,1.8c0.1,1.3,0.6,3.2,1.6,3.8
	c2,1.2,4.3,1.6,6.6,2.3c2.9,0.9,5.9,1.6,8.7,2.9c8.9,4.1,12.6,12.2,9.9,21.7c-1.7,6-5.1,11.1-9.5,15.4c-8.2,8-17.2,8.8-26.8,2.6
	c-3.1-2-6.3-4.2-9.7-5.7c-11.8-5.1-22.3-1.8-28.9,9.2c-6.6,10.9-6.6,22.7-3.2,34.6c2.4,8.3,6.7,10.9,15.3,10.2
	c3.4-0.3,6.8-1.3,10.1-2.2c4.5-1.3,7.7,0.3,10.9,3.4c2.9,2.8,6.6,5,10.1,7.2c2.1,1.3,4.7,1.9,7,3c5.9,2.9,8.9,7.6,8.7,14.2
	c-0.1,2.3-0.4,4.7-0.7,7c-0.6,4.2-1.7,8.4-2,12.6c-0.3,4.9,0.6,9.6,5.2,12.6c7,4.6,17.9-0.1,21.7-4.9c4.5-5.7,7.6-12.2,10.8-18.6
	c3.2-6.2,6.1-12.2,4.3-19.6c-1.8-7.1,0-13.7,4.6-19.5c2.1-2.7,4.2-5.5,6.1-8.4c1.3-1.9,2.4-4,3.5-6.1c1.2-2.5,0.3-4.2-2.3-4.8
	c-2.2-0.5-4.4-0.8-6.6-0.9c-10.4-0.5-16.6-5-20.2-14.7c-3.7-10.2-0.2-17.4,10.2-20.6c4.2-1.3,8.5-2.1,12.7-3.4
	c9.1-2.8,16.6-7.4,19.4-17.2c1-3.8,1.4-7.7,2.3-11.5c0.6-2.5-0.3-3.4-2.7-3.8C376.4,165.6,354.4,163.4,332.2,166z M207.5,139
	c0-0.1,0.3-0.5,0.2-0.9c-1.1-6.4,2.7-10.4,6.9-14.1c8.9-7.8,18.9-13.7,29.4-19.1c11.5-5.8,24-8.9,36.5-11.5c9.8-2,19.7-3.5,29.7-4.6
	c10.8-1.2,21.8-1.5,32.7-2.4c14.3-1.2,28.7-1.3,43,0.6c13.6,1.7,25.5,6.2,32,20c11.6-8.3,23.2-16.5,35.3-25.1
	c-1.4-0.5-1.7-0.6-2.1-0.8c-35.7-10.1-71.3-20.4-107-30.5c-10.5-3-21.1-5.4-31.7-7.8c-7.1-1.6-13.8-0.6-20.3,3.2
	c-13,7.6-26.2,14.8-39.1,22.5c-27.5,16.2-55,32.6-82.5,49c-2,1.2-4,2.5-6.3,3.9C178.9,127.4,193.2,133.2,207.5,139z M460,187.5
	c1.4-2.9,2.4-4.8,3.2-6.8c0.8-2,1.4-4.1,2-6.3c1.4-5.1-2-11.8-7.2-12.9c-5.7-1.3-8.6-0.8-7.6,6.2c0.4,2.9,1.7,5.8,3,8.4
	C455.2,179.8,457.5,183.2,460,187.5z"/>
<g class="st5">
	<path class="st1" d="M104,247.6l-18.5,0.9c-1,0-1.9-0.8-2-1.8l0,0c0-1,0.8-1.9,1.8-2l18.5-0.9c1,0,1.9,0.8,2,1.8l0,0
		C105.8,246.7,105,247.6,104,247.6z"/>
	<path class="st1" d="M93.2,255.5L92.3,237c0-1,0.8-1.9,1.8-2l0,0c1,0,1.9,0.8,2,1.8l0.9,18.5c0,1-0.8,1.9-1.8,2l0,0
		C94.1,257.3,93.3,256.5,93.2,255.5z"/>
</g>
<g>
	<path class="st6" d="M311.8,169.4c0.9-0.3,1.9-0.3,3.2-0.5c-1,7.6,3.6,11.1,9.4,14.1c2.8,1.4,5.7,2.6,8.4,4.3
		c3.4,2.1,4.1,4.3,2.7,8.1c-2,5.3-5.3,9.6-9.9,12.9c-3.3,2.3-6.6,2.4-10.1,0.6c-2.5-1.3-4.8-2.8-7.3-3.9
		c-17.2-7.8-34.3-2.1-43.6,14.5c-5.2,9.3-8.2,19.2-7.7,30c0.4,8.2,2.6,15.9,8.3,22.1c7,7.6,16.6,8.2,24.6,1.7
		c2.2-1.8,4.2-3.8,6.5-5.5c3.2-2.5,5.8-1.8,6.4,2.2c1.2,7.6,6.2,11.5,12.6,14.4c5.6,2.5,5.6,2.8,4.6,8.9c-0.9,5.1-2.1,10.2-2.6,15.3
		c-0.8,7.5,0.1,14.8,5.4,20.9c9,10.2,26,11.9,37.2,3c5.8-4.6,9.2-10.4,11.2-17.6c1.7-6.3,4.6-12.2,7.1-18.2
		c1.7-4.1,2.6-8.4,1.8-12.8c-0.8-4.2,0.1-7.9,2.7-11.2c2.8-3.6,5.9-7,8.4-10.8c2.6-4.1,5.4-8.3,6.9-12.8c2.9-8.8-3.3-16.8-12.6-16.9
		c-3.1,0-6.3,0.5-9.4,0.9c-5.4,0.6-7.9-0.6-10.3-5.5c-0.4-0.7-0.6-1.3-0.9-2c-2.8-7-1.5-9.2,6-9.9c7.6-0.8,15.2-1.7,22.1-5.3
		c8.1-4.2,13.9-10.5,16.6-19.3c1.6-5.2,3.2-10.4,4.8-15.7c3.7,1.1,6.4,3,8.2,7.4c6.2,15,12.1,30.2,14.5,46.4
		c5.3,34.8-2.4,66.2-26.2,92.8c-12.1,13.6-27.7,21.7-45.1,26.2c-35.1,9-68.6,4.6-99.5-14.7c-27.7-17.4-44.4-42.2-46.3-75.5
		c-0.6-10.8,0.8-21.8,1.6-32.6c0.5-6.5,1.4-12.9,2.3-19.3c0.1-0.8,2.4-2.4,2.1-2.9c-0.3-0.4-2.1,0.7-5.4,1.7c-1.8,0.6-3.3,0.9-4.3,1
		c-0.1,1.9-0.4,3.8-1,5.8c-1.8,5.2-2.7,10.8-4,16.2c-4.7,19.2-4.2,38.2,1.6,57c8.4,27.1,25.6,47.6,49.9,61.7
		c33.6,19.6,69.7,23.2,107.1,13.7c21.6-5.5,40-16.7,54.1-34.1c23.7-29.3,31.3-62.9,25.4-99.8c-2.4-15-7.9-28.9-15.8-42
		c-1.4-2.3-3.7-4.5-4.5-7.1c-10.5-2.2-19.5-4.1-27.3-5.6c0.1,0.5,0.1,1.1-0.1,1.8c-0.9,3.8-1.3,7.7-2.3,11.5
		c-2.8,9.8-10.3,14.4-19.4,17.2c-4.2,1.3-8.5,2.1-12.7,3.4c-10.4,3.2-13.9,10.4-10.2,20.6c3.6,9.7,9.8,14.2,20.2,14.7
		c2.2,0.1,4.4,0.4,6.6,0.9c2.6,0.6,3.5,2.3,2.3,4.8c-1.1,2.1-2.2,4.2-3.5,6.1c-1.9,2.9-4,5.7-6.1,8.4c-4.6,5.8-6.4,12.4-4.6,19.5
		c1.8,7.4-1.1,13.4-4.3,19.6c-3.2,6.4-6.3,12.9-10.8,18.6c-3.8,4.8-14.7,9.5-21.7,4.9c-4.6-3-5.5-7.7-5.2-12.6
		c0.3-4.2,1.4-8.4,2-12.6c0.3-2.3,0.6-4.7,0.7-7c0.2-6.6-2.8-11.3-8.7-14.2c-2.3-1.1-4.9-1.7-7-3c-3.5-2.2-7.2-4.4-10.1-7.2
		c-3.2-3.1-6.4-4.7-10.9-3.4c-3.3,0.9-6.7,1.9-10.1,2.2c-8.6,0.7-12.9-1.9-15.3-10.2c-3.4-11.9-3.4-23.7,3.2-34.6
		c6.6-11,17.1-14.3,28.9-9.2c3.4,1.5,6.6,3.7,9.7,5.7c9.6,6.2,18.6,5.4,26.8-2.6c4.4-4.3,7.8-9.4,9.5-15.4c2.7-9.5-1-17.6-9.9-21.7
		c-2.8-1.3-5.8-2-8.7-2.9c-2.3-0.7-4.6-1.1-6.6-2.3c-1-0.6-1.5-2.5-1.6-3.8c-0.1-1.5,2.4-1.8,2.6-1.8"/>
</g>
</svg>
