<svg id="Layer_1" data-name="Layer 1" xmlns="http://www.w3.org/2000/svg" viewBox="0 0 816 700"><defs><style>.cls-1{fill:#f5f5f5;}.cls-2,.cls-3{fill:none;stroke:#fca51c;stroke-width:2px;}.cls-2{stroke-miterlimit:10;}.cls-3{stroke-linejoin:round;}.cls-4{fill:#fca51c;}.cls-5{fill:#ffc280;}</style></defs><title>integrato</title><path id="Rectangle_33" data-name="Rectangle 33" class="cls-1" d="M372.46,529.51H721a37.26,37.26,0,0,1,37.24,37.24h0A37.26,37.26,0,0,1,721,604H372.46a37.26,37.26,0,0,1-37.24-37.24h0A37.26,37.26,0,0,1,372.46,529.51Z"/><path id="Rectangle_31" data-name="Rectangle 31" class="cls-1" d="M91.89,339.74H396.72a56.63,56.63,0,0,1,56.55,56.55h0a56.63,56.63,0,0,1-56.55,56.55H91.89a56.63,56.63,0,0,1-56.55-56.55h0A56.63,56.63,0,0,1,91.89,339.74Z"/><path id="Rectangle_32" data-name="Rectangle 32" class="cls-1" d="M310.77,124.2h285c29.43,0,53.15,21.24,53.15,47.59h0c0,26.34-23.72,47.58-53.15,47.58h-285c-29.43,0-53.15-21.24-53.15-47.58h0C257.62,145.58,281.5,124.2,310.77,124.2Z"/><circle class="cls-2" cx="140.06" cy="88.29" r="12.32"/><circle class="cls-2" cx="314.92" cy="630.84" r="12.32"/><polygon class="cls-3" points="726.43 334.47 715.07 331.83 703.71 329.18 711.68 320.66 719.65 312.14 723.04 323.31 726.43 334.47"/><path class="cls-4" d="M598,195.61c-1-9-3-19-8-27-9-13-21-22-36-22-106,1-213,0-319,4-23,4-43,23-42,47,2,104,0,207,4,311,1,23,20,42,43,46,32-1,64-1,96-2,43-1,87,1,130-1,31-1,62,1,94-2a98.3,98.3,0,0,0,16-5c5-3,10-8,15-12,3-3,4-7,7-11,2-4,4-8,4-12-1-105-2-209-4-314Zm-212,332c-46,0-93,1-139,1-3,0-7,1-10-1-8-4-14-11-15-20-3-49-2-97-2-145,13,0,25-2,38-1-4,22,10,44,32,50,12,3,24,1,35-5,16-10,24-27,22-45h38c0,18-1,37-1,55,0,3,2,6,4,9,7,7,15,0,23-2,5-1,10,1,15,3,6,5,11,12,10,20a23,23,0,0,1-12,18c-8,3-16,1-24-3-5-2-12,0-13,5-5,21-2,41-1,61Zm-143-353c47-1,95-1,142-2,2,13,0,26,1,39-14-3-30,3-40,14-10,12-14,28-9,43a48.75,48.75,0,0,1,3,7c9,17,28,27,47,24,0,13-2,25-1,38-19,0-37-1-56-1-8,1-14,9-11,16,2,5,5,10,5,16-1,11-11,21-23,20a23.75,23.75,0,0,1-20-16c-1-7,1-14,4-20,3-5,1-12-4-13-21-5-41-2-61-1,0-43,0-86-2-129,0-6-1-11,1-17,4-11,13-17,24-18Zm166-2c48,0,95-1,143-1,9,1,16,9,20,17,3,50,3,99,3,149-13,2-25,0-38,1,2-18-7-37-23-46-19-10-42-5-56,12-8,10-11,23-10,35-13,0-26-1-39-1,2-20,3-40-1-61,0-3-5-6-9-5-9,0-18,7-27,3-11-5-16-18-12-29,4-8,13-14,22-13,6,1,10,6,16,5,5,0,12-1,12-8,1-19-1-39-1-58Zm5,317c16,1,30-7,39-20a45.25,45.25,0,0,0-2-51c-10-13-27-19-43-18-1-13,1-25,1-38,19,0,38,3,58,0,4,0,7-4,9-8,1-5-1-9-4-13-5-11,3-26,15-29,10-2,20,2,25,11a28.71,28.71,0,0,1-2,24c-4,7,2,16,10,16,18-1,37,0,55-2,0,46,0,93,2,139a26.63,26.63,0,0,1-3,12,25.85,25.85,0,0,1-19,13c-49,2-97,2-146,2,0-13,0-25-1-38Z"/><path class="cls-5" d="M586,158.6a38.44,38.44,0,0,0-28.14-12.75c-58.55-2.48-116.15,0-174.7,1.48,3.19,21.32,3.34,42.53,3.5,63.6-19.1-2-38.1,6.67-46.91,23.1-5.86,12.62-6.65,28.4.49,41.6,9.18,16.27,28.19,27.61,46.08,22.77-.84,21.66-2.66,42.18-1.49,63.56,2,0,3-.95,4.94-.93h-1c24.75-1.78,49.52,5.3,75.26,1.55a34.2,34.2,0,0,0,8.91-3.94c6.93-6,2-16.06-1-23-1-6,0-13,4-17.07,7-5.09,15.92-7.24,23.87-5.3s15.87,11,13.84,20.18c-3,9.17-9,23.36,1.87,28.54,5.92,3.12,12.86,1.13,19.79,1.18q32.68-1.28,65.39-2.47c-1.28-59.62,3.45-119.18-1.87-178.85.1-8.07-5.88-14.19-9.84-21.2-1-1-2-1-3-2ZM537.48,336.49a50.2,50.2,0,0,0-8.75-33.61c-13.82-19.26-39.79-24.7-59.73-11.29-4,3.08-8,7.14-11.95,10.2-4,4-5,9-6.95,13-2,7-2,14.92-2,21.86-12.9.05-24.81.08-37.71.07-1.1-19.6,1.78-38.34-1.31-58.14-1-4.95-5.05-8.88-11-7.87s-10,5-14.93,5.91c-11,.92-21-5.24-24.11-15.23-2.09-9-.18-17.83,7.77-23.66,8.95-6.83,19-3.8,28.05.16,5,2,12-.08,13-5.09,4.91-20.06.79-40.13,1.69-60.37,48.36-.51,96.73-.76,145.07.05a21,21,0,0,1,19,18.92c2.55,47.93.09,95.38,2.61,144.41-12.91-.22-25.83,1.71-38.72.64Z"/></svg>