<?xml version="1.0" encoding="utf-8"?>
<!-- Generator: Adobe Illustrator 23.1.0, SVG Export Plug-In . SVG Version: 6.00 Build 0)  -->
<svg version="1.1" id="Layer_1" xmlns="http://www.w3.org/2000/svg" xmlns:xlink="http://www.w3.org/1999/xlink" x="0px" y="0px"
	 viewBox="0 0 890.9 510.6" style="enable-background:new 0 0 890.9 510.6;" xml:space="preserve">
<style type="text/css">
	.st0{fill:#F18033;}
	.st1{fill:#1C6EB8;}
	.st2{fill:#FCA51C;}
	.st3{fill:#26C3ED;}
	.st4{fill:#2EC6EF;}
	.st5{enable-background:new    ;}
</style>
<title>finale</title>
<path class="st0" d="M755.5,318.4c-51-2.4-111.7-35.2-114.4-91.5c20.2,17,45.5,28.4,71.5,34c57.2,12.3,66.3-19.8,26.7-53.8
	c-19.1-16.5-44-24.5-67.2-34c68.1-37,156.5,24.9,173.8,68.9C866.3,299.9,799.6,321.9,755.5,318.4z"/>
<path class="st1" d="M577.3,135.5c-14.4,4.6-30.7,5-46,3.8c-9.6-0.4-18-3.4-27.8-1.6c-9.8,2.1-15.7,13.6-6.5,20.2
	c17.3,12.4,39,13.7,58.9,19.5c-83.1,66.6-186-14.4-173.5-49.3c10.8-37.1,74.8-43,101.3-40.8C515.9,90.2,571.4,113,577.3,135.5z"/>
<path class="st2" d="M670.2,106.4c6.5-9.2,31.3-42.2,2.9-33.9c-13.1,6.5-25.8,29.3-31.8,25.7c-29.3-17.6-25-45.6,2.5-66.9
	C683,0.5,749.7-1.8,783.6,29c12.9,11.8,6.4,28.7-0.8,40.4C760,105.1,706.7,110.2,670.2,106.4z"/>
<path class="st3" d="M670.2,106.4c-43,54.7-45.5,51.9-31.5,56.2c39.3,12.2,78.3,22.9,105,47.5c29.6,27.8,28.4,56.1-15.1,53.3
	c-36.1-4.2-73-18.9-97.9-46.8c-7.8-7.1-16.2-13.6-25-19.3l0,0c-10-6.7-21-12.7-32.9-16.4c-17.5-4.6-101.8-16.4-76.6-39.4
	c10-9,25-2.6,37.6-2.3c14.8,0.4,29.5,0.1,43.8-3.8c37-9.6,67.7-42,92-61.2c6.8-5.4,19.4-6,16.4,5.7
	C683.5,90.4,677.2,96.6,670.2,106.4z"/>
<path class="st3" d="M11.9,358.7c-4.6,0.1-8.3-3.6-8.4-8.1c0-0.1,0-0.2,0-0.3V240.9c-0.1-2.3,0.8-4.5,2.4-6.1c1.6-1.6,3.8-2.4,6-2.4
	c4.4-0.2,8.2,3.2,8.4,7.6c0,0.3,0,0.6,0,0.8v109.4c0.1,2.2-0.8,4.4-2.3,6C16.3,357.9,14.1,358.8,11.9,358.7z"/>
<path class="st3" d="M60.8,358.7c-2.2,0.1-4.4-0.8-5.9-2.4c-1.6-1.6-2.4-3.8-2.3-6V240.9c-0.1-2.3,0.8-4.4,2.4-6
	c1.5-1.6,3.6-2.5,5.8-2.4c4.6-0.1,8.3,3.6,8.4,8.2c0,0.1,0,0.2,0,0.3v101h58.5c4.6,0,8.4,3.8,8.4,8.4s-3.8,8.4-8.4,8.4c0,0,0,0,0,0
	H60.8z"/>
<path class="st3" d="M164.7,358.7c-4.6,0.1-8.3-3.6-8.4-8.2c0-0.1,0-0.2,0-0.2V240.9c-0.1-2.3,0.8-4.5,2.4-6.1
	c1.6-1.6,3.8-2.4,6-2.4c3.1-0.1,6,1.7,7.4,4.5l50.6,101.3h-5.2L266.8,237c1.4-2.8,4.3-4.6,7.4-4.5c2.2-0.1,4.4,0.8,6,2.4
	c1.6,1.6,2.5,3.8,2.4,6.1v109.4c0.1,2.3-0.9,4.4-2.5,6c-3.2,3.3-8.5,3.3-11.8,0.1c-1.6-1.6-2.5-3.8-2.5-6.1v-86.1l3.2-0.8
	l-42.3,86.3c-1.5,2.6-4.3,4.2-7.3,4.2c-3.4,0.1-6.5-1.9-7.8-5L169.9,265l3.2-0.8v86.1c0.1,4.6-3.6,8.3-8.2,8.4
	C164.9,358.7,164.8,358.7,164.7,358.7L164.7,358.7z"/>
<path class="st3" d="M310,358.7c-2.9,0.1-5.5-1.4-7-3.9c-1.6-2.5-1.8-5.6-0.5-8.2L348,238.2c1.6-3.8,4.3-5.7,7.9-5.7
	c3.9,0,6.5,1.9,7.9,5.7l45.6,108.7c1.2,2.6,1,5.7-0.6,8.2c-1.5,2.4-4.2,3.8-7,3.6c-1.6,0-3.2-0.5-4.6-1.4c-1.4-0.9-2.5-2.2-3.1-3.8
	L353.9,254h4.5l-40.7,99.5c-0.7,1.6-1.8,3-3.3,3.9C313.1,358.2,311.6,358.7,310,358.7z M318.6,330.9L325,317h63.3l6.5,13.9
	L318.6,330.9z"/>
<path class="st3" d="M481.9,360.3c-16.7,0.1-32.8-6.6-44.4-18.7c-5.7-5.9-10.2-12.9-13.3-20.6c-3.2-8.1-4.8-16.8-4.8-25.5
	c-0.1-8.7,1.5-17.2,4.8-25.3c3.1-7.6,7.6-14.6,13.3-20.5c5.6-5.9,12.4-10.5,19.8-13.8c7.7-3.4,16.1-5.1,24.6-5
	c8.3,0,15.4,1.1,21.4,3.2c6.6,2.5,12.7,6.1,18,10.7c0.8,0.6,1.4,1.2,2,2c0.5,0.6,0.8,1.3,1,2.1c0.2,0.8,0.3,1.7,0.2,2.5
	c0.1,1.9-0.7,3.8-2.2,5.1c-3.1,2.9-8,3-11.2,0.2c-3.7-3.3-7.9-5.9-12.4-7.9c-4.3-1.8-9.9-2.7-16.9-2.7c-6.2,0-12.3,1.3-17.9,3.9
	c-5.6,2.6-10.6,6.2-14.8,10.7c-4.3,4.6-7.7,9.9-9.9,15.8c-4.7,12.4-4.7,26.1,0,38.5c2.3,5.8,5.7,11.2,9.9,15.8
	c4.2,4.5,9.2,8.1,14.8,10.6c10.6,4.7,22.7,5.1,33.5,1c5-2,9.8-4.6,14.1-7.8c1.6-1.3,3.7-2,5.7-1.9c1.8,0.1,3.5,0.9,4.8,2.3
	c1.4,1.5,2.1,3.5,1.9,5.6c0,1.1-0.2,2.2-0.7,3.1c-0.5,1.1-1.1,2-1.9,2.8c-5.6,4.5-11.9,8.1-18.7,10.5
	C496.1,359.2,489,360.4,481.9,360.3z"/>
<path class="st4" d="M511.8,55.9c27-4.2,54.2-6.3,81.5-6.3c1.7,0,3.3,0,5,0c0.9,0,1.7-0.6,1.9-1.5c0.2-0.7,0.3-1.4,0.5-2.1
	c0.3-1-0.3-2.1-1.4-2.3c-0.2,0-0.3-0.1-0.5-0.1c-29.4-0.3-58.8,1.9-87.9,6.4c-90.6,13.9-172.4,49-230.4,98.9
	c-19.8,17-35.9,35-48.4,53.7c-0.7,1-0.4,2.5,0.6,3.2c0.2,0.1,0.4,0.2,0.6,0.3c0.4,0.1,0.9,0.3,1.4,0.5c1,0.4,2.1,0,2.7-0.9
	C285.3,134,387.5,74.9,511.8,55.9z"/>
<path class="st4" d="M287.1,426c-18.3-12.3-33.5-26.2-45.4-41.4c-0.6-0.8-1.6-1.1-2.5-0.8c-0.4,0.1-0.9,0.3-1.3,0.4
	c-1.2,0.3-2,1.6-1.6,2.8c0.1,0.3,0.2,0.6,0.4,0.8c12.4,15.9,28.3,30.4,47.3,43.2c1.1,0.7,2.6,0.4,3.3-0.7c0.1-0.1,0.1-0.2,0.2-0.3
	c0.2-0.4,0.3-0.7,0.5-1C288.5,428,288.2,426.7,287.1,426z"/>
<path class="st4" d="M883.7,213.4c-7.3-47.5-38.6-88.8-89.4-118.9c-0.7-0.4-1.7-0.3-2.2,0.3c-0.5,0.6-1.1,1.1-1.7,1.7
	c-0.7,0.7-0.7,1.9,0,2.6c0.1,0.1,0.2,0.2,0.4,0.3c49.5,29.2,80,69.2,87,115c8.5,55.2-18.1,112.5-74.9,161.4
	c-11.3,9.7-23.2,18.7-35.7,26.8c-0.9,0.6-1.1,1.8-0.6,2.7c0.2,0.3,0.4,0.5,0.7,0.7c0.7,0.4,1.4,0.8,2.1,1.1c0.6,0.4,1.4,0.3,2-0.1
	c12.3-8.1,24.1-17.1,35.4-26.7C865.2,330,892.5,270.7,883.7,213.4z"/>
<g class="st5">
	<path class="st0" d="M337.4,397.6l4.1,68.2c6.4,0,12.8-0.4,19.2-1.2c6.4-0.8,13-1.6,19.7-2.3l0.4,3.5c-0.1,0-0.7,0.1-2,0.3
		c-1.3,0.2-2.9,0.4-4.9,0.6c-2,0.3-4.4,0.5-6.9,0.8c-2.6,0.3-5.2,0.6-7.7,0.9c-2.6,0.3-5.1,0.6-7.4,0.9c-2.4,0.3-4.4,0.5-6.1,0.6
		c-0.1,0-0.3,0-0.5,0.1c-0.3,0-0.6,0.1-1,0.1c-0.4,0-0.7,0-1.1,0c-0.4,0-0.6,0-0.9,0c-1.6,0-2.9-0.8-3.9-2.5c-1-1.7-1.8-4-2.5-6.9
		c-0.6-2.9-1.1-6.2-1.4-10c-0.3-3.8-0.5-7.7-0.6-11.8c-0.1-4.1-0.2-8.2-0.2-12.4c0-4.2,0.1-8.1,0.1-11.8c0-3.7,0-7-0.1-10.1
		c0-3-0.2-5.3-0.4-7H337.4z"/>
	<path class="st0" d="M384.4,408.9c0-0.5,0-1.1,0.1-1.7c0.1-0.6,0.2-1.2,0.5-1.7c0.3-0.5,0.6-0.9,1-1.3c0.4-0.4,0.9-0.5,1.5-0.5
		c0.9,0,1.7,0,2.6,0.1c0.9,0.1,1.7,0.2,2.5,0.5c0.8,0.3,1.4,0.6,1.9,1.2c0.5,0.5,0.8,1.3,0.8,2.3c0,1.7-0.6,3.2-1.9,4.6
		c-1.3,1.3-2.9,2-4.7,2c-1.4,0-2.5-0.6-3.1-1.7C384.8,411.6,384.4,410.3,384.4,408.9z M390.7,409.4c-0.2,0-0.3,0.2-0.3,0.5
		c0,0.4,0.1,0.5,0.3,0.5c0.3,0,0.4-0.2,0.4-0.5C391.1,409.6,390.9,409.4,390.7,409.4z M390.7,428.1c0.9,0,1.6,0,2.2-0.1
		c0.6-0.1,1.1,0.3,1.6,1.1c0.2,3.2,0.5,6.5,0.8,9.8c0.3,3.3,0.6,6.7,0.9,10.1c0.3,3.4,0.5,6.8,0.6,10.2c0.1,3.4,0.1,6.7,0.1,9.9
		c0,0.4-0.1,0.7-0.3,0.8c-0.2,0.1-0.5,0.1-0.9,0.1c-0.4,0-0.9-0.1-1.4-0.1c-0.5,0-1.1,0-1.8,0.2L390.7,428.1z"/>
	<path class="st0" d="M402.7,469.3c-0.1-1.1-0.3-2.8-0.4-5c-0.1-2.2-0.2-4.7-0.3-7.4c-0.1-2.8-0.2-5.6-0.3-8.7
		c-0.1-3-0.1-5.9-0.2-8.6c-0.1-2.7-0.2-5.2-0.3-7.4c-0.1-2.2-0.3-3.9-0.5-5c0-0.1,0-0.3-0.1-0.5c0-0.3-0.1-0.6-0.1-1
		c0-0.4-0.1-0.7-0.1-0.9c0-0.3,0-0.4,0-0.6c1.1-0.9,2-1.1,2.7-0.9c0.8,0.3,1.4,0.9,1.9,1.9c0.5,1,0.9,2.2,1.1,3.6
		c0.2,1.4,0.4,2.9,0.5,4.3c0.1,1.4,0.2,2.7,0.2,3.9s0,2,0,2.5c0.1-1.2,0.4-2.7,0.6-4.3c0.3-1.6,0.7-3.3,1.3-5.1
		c0.6-1.7,1.3-3.4,2.1-5.1c0.8-1.7,1.8-3.2,3.1-4.5c1.2-1.3,2.6-2.3,4.1-3c1.5-0.7,3.3-1,5.3-0.9c3.2,0.1,5.8,1,7.8,2.6
		c2,1.6,3.7,3.7,4.8,6.3c1.2,2.7,2,5.7,2.6,9.1c0.5,3.4,0.9,7.1,1.1,11c0.2,3.9,0.2,7.8,0.2,11.8c-0.1,4-0.1,7.8-0.1,11.4
		c-0.6,0.1-1.3,0.4-1.9,0.7c-0.6,0.3-1.2,0.5-1.6,0.4c-0.4,0-0.7-0.4-0.9-1c-0.2-0.6-0.1-1.8,0.2-3.6c0.1-1.3,0.2-3.3,0.4-6
		c0.2-2.7,0.3-5.7,0.2-9c0-3.3-0.2-6.7-0.6-10.2c-0.4-3.5-1-6.7-2-9.6c-1-2.9-2.3-5.3-4.1-7.1c-1.8-1.8-4.1-2.7-7-2.7
		c-2.9,1.2-5.4,3.5-7.4,6.9c-2,3.4-3.5,7.3-4.7,11.8s-2,9.4-2.6,14.7s-0.8,10.4-0.9,15.4c-0.1-0.1-0.4-0.1-0.8-0.1
		c-0.4,0-0.8,0-1.3-0.1c-0.5,0-0.9-0.1-1.3-0.2C403,469.5,402.8,469.4,402.7,469.3z"/>
	<path class="st0" d="M429.5,495.3c0-1.9,0.3-3.4,1-4.4c0.6-1,2.2-1.5,4.5-1.5c-0.2,1-0.5,2-0.8,3c-0.3,1-0.6,1.9-0.9,2.8
		c-0.3,0.9-0.4,1.5-0.3,2c0,0.5,0.3,0.7,0.8,0.5c2.3,1.5,4.8,2.6,7.5,3.2c2.7,0.6,5.4,1,8.1,1c4-0.1,7.5-0.9,10.4-2.5
		c2.9-1.6,5.3-3.6,7.2-6.1c1.9-2.5,3.4-5.4,4.4-8.7c1-3.3,1.7-6.6,1.9-10.1c0.3-3.5,0.2-7-0.3-10.5c-0.4-3.5-1.1-6.7-2-9.7
		c-1.2,1.4-2.5,2.8-3.7,4.3c-1.3,1.5-2.6,2.8-4,4c-1.4,1.2-3,2.2-4.6,3c-1.6,0.8-3.4,1.2-5.4,1.2c-2.1,0-3.6-0.4-4.7-1.1
		c-1-0.7-1.7-1.7-2.1-3c-0.4-1.3-0.5-2.7-0.5-4.4c0-1.6,0.1-3.4,0.1-5.3c0-1.7,0.1-3.7,0.2-5.8s0.4-4.3,0.8-6.5
		c0.4-2.2,0.9-4.3,1.6-6.5c0.7-2.1,1.6-4,2.7-5.7c1.1-1.7,2.6-3,4.3-4c1.7-1,3.8-1.5,6.1-1.5c1.5,0,3,0.1,4.4,0.4
		c1.4,0.3,2.7,0.7,3.9,1.3c1.2,0.6,2.2,1.5,3.1,2.6c0.9,1.1,1.5,2.4,2,4.1c0.3,3.2,0.6,6.7,1.1,10.5c0.4,3.8,0.8,7.7,1.1,11.7
		c0.3,4,0.4,8.1,0.4,12.2c0,4.1-0.3,8-0.8,11.8c-0.5,3.8-1.4,7.4-2.7,10.7c-1.3,3.3-3,6.3-5.3,8.8c-2.3,2.5-5.1,4.6-8.4,6.1
		c-3.4,1.5-7.4,2.4-12.1,2.5c-2,0-4.1-0.1-6.3-0.4c-2.2-0.3-4.3-0.8-6.1-1.5c-1.9-0.8-3.4-1.8-4.6-3.2S429.5,497.7,429.5,495.3z
		 M450.1,453.3c0,0.8,0,1.7-0.1,2.7c-0.1,1,0,2,0.1,3c0.1,1,0.4,1.9,0.9,2.6c0.5,0.7,1.2,1.1,2.3,1.2c1.7,0,3.3-0.4,4.8-1.2
		c1.5-0.8,2.8-1.9,4-3.2c1.2-1.4,2.2-2.9,3.1-4.6c0.9-1.7,1.6-3.4,2.3-5.2c0.6-1.8,1.1-3.5,1.4-5.2c0.3-1.7,0.5-3.2,0.5-4.5
		c0.2-1.4,0.2-2.7,0.1-4.1c-0.2-1.4-0.6-2.6-1.2-3.7c-0.6-1.1-1.5-2-2.6-2.6c-1.1-0.7-2.4-1-3.9-1c-1.7,0-3.2,0.5-4.5,1.5
		c-1.3,1-2.4,2.2-3.2,3.7s-1.5,3.2-2,5.1c-0.5,1.9-0.9,3.8-1.1,5.7c-0.3,1.9-0.4,3.7-0.5,5.5C450.2,450.7,450.1,452.2,450.1,453.3z"
		/>
	<path class="st0" d="M482.8,428.1c0-0.4,0.2-0.7,0.7-1.1c0.5-0.4,1-0.6,1.7-0.9c0.7-0.2,1.3-0.4,2-0.4c0.6-0.1,1.1,0,1.4,0.3
		c0.4,8.9,1.3,16,2.5,21.2c1.3,5.3,2.7,9.1,4.3,11.6c1.6,2.4,3.3,3.7,5.2,3.7c1.9,0,3.7-0.8,5.5-2.4c1.8-1.6,3.5-3.8,5-6.6
		c1.5-2.8,2.8-5.8,3.8-9s1.6-6.5,1.8-9.7c0.2-3.2-0.1-6.1-0.9-8.6l6.5-0.8c0.1,1.1,0.3,2.8,0.6,5.3c0.3,2.5,0.7,5.3,1.1,8.4
		c0.4,3.1,0.8,6.4,1.3,9.7c0.5,3.4,0.9,6.5,1.3,9.4c0.4,2.9,0.7,5.4,1,7.4c0.3,2,0.4,3.3,0.4,3.8h-4.6l-5.1-18.6
		c-1,2.5-2.2,4.9-3.7,7.2c-1.4,2.3-3,4.3-4.7,6c-1.7,1.7-3.5,3.1-5.3,4c-1.9,1-3.7,1.4-5.5,1.2c-1.8-0.2-3.6-1-5.3-2.5
		c-1.7-1.5-3.3-3.9-4.8-7.1c-1.5-3.3-2.7-7.5-3.8-12.6S483.3,435.7,482.8,428.1z"/>
	<path class="st0" d="M532,460.6c0-4.1,1.1-7.1,3.4-8.9c2.3-1.9,5.2-2.8,8.9-2.8c1.4,0,2.8,0,4,0.1c1.3,0.1,2.5,0.3,3.6,0.5
		c1.1,0.3,2.3,0.7,3.4,1.3c1.1,0.6,2.3,1.4,3.5,2.5c0-0.2,0-0.7,0.1-1.3c0-0.7,0.1-1.4,0.1-2.2c0-0.8,0-1.5,0-2.2c0-0.7,0-1.2,0-1.5
		c-0.1-1.3-0.1-3-0.1-5s-0.2-4.1-0.5-6.3c-0.3-2.2-1-4.2-1.9-6.1c-1-1.9-2.5-3.4-4.7-4.4c-1.5,0-2.9,0.3-4.2,0.8
		c-1.3,0.5-2.6,1-3.9,1.6c-1.3,0.6-2.6,1.1-3.9,1.6c-1.3,0.5-2.7,0.7-4.2,0.7c0-1.8,0.6-3.3,1.7-4.5c1.1-1.2,2.5-2.1,4-2.7
		c1.6-0.6,3.2-1.1,4.9-1.3c1.7-0.2,3.2-0.3,4.5-0.3c1.3,0.2,2.5,0.5,3.6,0.8c1.1,0.3,2.1,0.9,3.1,1.7c1,0.9,1.9,2.2,2.7,3.9
		c0.8,1.8,1.5,4.2,2.2,7.4c0.6,3.2,1.1,7.1,1.6,12c0.5,4.8,0.8,10.8,1.1,17.8c0.1,0.9-0.2,1.7-0.9,2.4c-0.8,0.7-1.8,1.3-3.1,1.7
		c-1.3,0.5-2.7,0.9-4.4,1.2c-1.6,0.3-3.2,0.6-4.9,0.7c-1.7,0.1-3.2,0.3-4.7,0.3c-1.5,0.1-2.8,0.1-3.8,0.1c-1.3,0-2.6-0.2-3.9-0.6
		c-1.3-0.4-2.5-1.1-3.7-1.9c-1.1-0.8-2-1.8-2.7-3C532.4,463.4,532,462,532,460.6z M546,453.1c-3.6,1-6.1,2.2-7.5,3.6
		c-1.4,1.4-2.1,2.7-1.9,4c0.2,1.3,1,2.5,2.5,3.5c1.5,1,3.3,1.7,5.5,2c2.2,0.3,4.5,0.1,7-0.5c2.5-0.7,4.9-2,7.2-4
		c-0.9-2.1-1.7-3.7-2.6-4.8c-0.9-1.1-1.8-2-2.8-2.5c-1-0.6-2.1-0.9-3.3-1.1C548.9,453.2,547.5,453.1,546,453.1z"/>
	<path class="st0" d="M574.9,405.9c0,0.2,0,0.7-0.1,1.4c0,0.7-0.1,1.5-0.1,2.2c0,0.8,0,1.5,0,2.2c0,0.7,0,1.1,0,1.3
		c0,4.7,0.1,9.3,0.3,14c0.2,4.7,0.5,9.3,0.8,14c0.3,4.7,0.5,9.4,0.8,14.1c0.2,4.7,0.3,9.5,0.3,14.2l-3.9-0.2
		c-0.1-1.4-0.2-3.3-0.4-5.7c-0.2-2.4-0.4-5.3-0.6-8.4c-0.3-3.2-0.5-6.6-0.8-10.3c-0.3-3.7-0.6-7.4-0.9-11.1
		c-0.3-3.8-0.6-7.5-0.8-11.1s-0.4-7-0.6-10.2c-0.2-3.1-0.3-5.9-0.4-8.3c-0.1-2.4-0.1-4.2,0-5.5c0-0.9,0.3-1.6,1-2.2
		c0.6-0.6,1.4-0.9,2.3-0.9c0.9,0,1.8,0.2,3,0.6c1.1,0.4,1.8,0.9,2.2,1.6l38.7,62.5c0-3.3-0.1-6.8-0.3-10.6
		c-0.2-3.8-0.3-7.7-0.5-11.7c-0.1-4-0.2-8-0.3-12.1c0-4,0-8,0.2-11.8c0.2-3.8,0.5-7.5,1.1-10.9c0.5-3.4,1.3-6.6,2.3-9.4
		c1-0.4,1.8-0.6,2.4-0.6c0.6,0,1,0,1.3,0.1c0.3,0.1,0.4,0.3,0.5,0.5c0,0.3,0.1,0.6,0.1,0.9c0,0.1,0,0.4,0,0.6c0,0.3,0,0.5,0,0.5
		c-0.1,0.4-0.3,1.2-0.5,2.4c-0.2,1.1-0.4,2.8-0.7,5.1c-0.3,2.3-0.5,5.2-0.8,8.8c-0.2,3.6-0.4,8-0.6,13.3c-0.2,5.3-0.4,11.6-0.5,18.9
		c-0.1,7.3-0.1,15.8-0.1,25.6l-3.1,0.2L574.9,405.9z"/>
	<path class="st0" d="M627.1,450.2c0-1.6,0.1-3.6,0.4-5.8c0.3-2.2,0.8-4.4,1.4-6.6c0.6-2.2,1.5-4.4,2.4-6.6c1-2.2,2.1-4.1,3.5-5.8
		c1.4-1.7,2.9-3,4.7-4.1c1.8-1,3.8-1.6,6-1.6c2.3,0,4.4,0.8,6.4,2.4c2,1.6,3.7,3.6,5.1,6.1c1.4,2.5,2.5,5.3,3.2,8.4
		c0.7,3.1,1,6.1,0.9,9c0,4.3-0.8,8.1-2.5,11.5c-1.6,3.4-3.7,6.1-6.3,8.2c-2.5,2.1-5.3,3.5-8.2,4.2c-2.9,0.7-5.6,0.5-8.2-0.6
		c-2.5-1.1-4.7-3.2-6.3-6.3C627.9,459.7,627.1,455.5,627.1,450.2z M631.1,450.6c0.2,4.4,1,7.7,2.3,10.1s2.8,3.9,4.7,4.7
		c1.8,0.8,3.8,0.8,6,0.1c2.2-0.7,4.2-2,6-3.8c1.9-1.8,3.5-4.1,4.8-6.9c1.3-2.8,2.1-5.9,2.2-9.3c0.1-2.6-0.1-5.1-0.6-7.5
		c-0.5-2.4-1.3-4.6-2.3-6.5c-1-1.9-2.2-3.4-3.5-4.5c-1.4-1.1-3-1.7-4.8-1.7c-1.7,0-3.3,0.4-4.6,1.3c-1.4,0.9-2.6,2-3.7,3.5
		c-1.1,1.5-2.1,3.1-2.8,5c-0.8,1.9-1.5,3.7-2,5.6c-0.5,1.9-0.9,3.7-1.2,5.4C631.2,447.8,631.1,449.3,631.1,450.6z"/>
	<path class="st0" d="M665.5,422.3l3.3-3.3l23.7,43l10.1-41.6c0.5,0.2,1,0.4,1.6,0.5c0.6,0.1,1.1,0.2,1.6,0.3
		c0.5,0.1,0.8,0.2,1.1,0.4c0.3,0.1,0.4,0.4,0.4,0.8c-0.9,4.6-1.8,8.9-2.6,12.9c-0.8,4-1.7,7.9-2.6,11.7c-0.9,3.8-1.9,7.6-3,11.4
		c-1.1,3.8-2.3,7.8-3.8,12H691L665.5,422.3z"/>
	<path class="st0" d="M709.2,460.6c0-4.1,1.1-7.1,3.4-8.9c2.3-1.9,5.2-2.8,8.9-2.8c1.4,0,2.8,0,4,0.1c1.3,0.1,2.5,0.3,3.6,0.5
		c1.1,0.3,2.3,0.7,3.4,1.3c1.1,0.6,2.3,1.4,3.5,2.5c0-0.2,0-0.7,0.1-1.3c0-0.7,0.1-1.4,0.1-2.2c0-0.8,0-1.5,0-2.2c0-0.7,0-1.2,0-1.5
		c-0.1-1.3-0.1-3-0.1-5s-0.2-4.1-0.5-6.3c-0.3-2.2-1-4.2-1.9-6.1c-1-1.9-2.5-3.4-4.7-4.4c-1.5,0-2.9,0.3-4.2,0.8
		c-1.3,0.5-2.6,1-3.9,1.6c-1.3,0.6-2.6,1.1-3.9,1.6c-1.3,0.5-2.7,0.7-4.2,0.7c0-1.8,0.6-3.3,1.7-4.5c1.1-1.2,2.5-2.1,4-2.7
		c1.6-0.6,3.2-1.1,4.9-1.3c1.7-0.2,3.2-0.3,4.5-0.3c1.3,0.2,2.5,0.5,3.6,0.8c1.1,0.3,2.2,0.9,3.1,1.7c1,0.9,1.9,2.2,2.7,3.9
		c0.8,1.8,1.5,4.2,2.2,7.4c0.6,3.2,1.1,7.1,1.6,12c0.5,4.8,0.8,10.8,1.1,17.8c0.1,0.9-0.2,1.7-0.9,2.4c-0.8,0.7-1.8,1.3-3.1,1.7
		c-1.3,0.5-2.7,0.9-4.4,1.2c-1.6,0.3-3.2,0.6-4.9,0.7c-1.6,0.1-3.2,0.3-4.7,0.3c-1.5,0.1-2.8,0.1-3.8,0.1c-1.3,0-2.6-0.2-3.9-0.6
		c-1.3-0.4-2.5-1.1-3.7-1.9c-1.1-0.8-2-1.8-2.7-3C709.6,463.4,709.2,462,709.2,460.6z M723.2,453.1c-3.6,1-6.1,2.2-7.5,3.6
		c-1.4,1.4-2.1,2.7-1.9,4c0.2,1.3,1,2.5,2.5,3.5c1.5,1,3.3,1.7,5.5,2s4.5,0.1,7-0.5c2.5-0.7,4.9-2,7.2-4c-0.9-2.1-1.7-3.7-2.6-4.8
		c-0.9-1.1-1.8-2-2.8-2.5c-1-0.6-2.1-0.9-3.3-1.1C726.1,453.2,724.7,453.1,723.2,453.1z"/>
</g>
</svg>
