<svg id="Layer_1" data-name="Layer 1" xmlns="http://www.w3.org/2000/svg" viewBox="0 0 288 203"><defs><style>.cls-1{fill:#f18033;}.cls-2{fill:#1c6eb8;}.cls-3{fill:#fca51c;}.cls-4{fill:#26c3ed;}</style></defs><title>Artboard 1</title><path class="cls-1" d="M225.9,192.56C196.06,191.15,160.54,172,159,139c11.82,9.95,26.63,16.62,41.84,19.9,33.46,7.19,38.79-11.59,15.62-31.48-11.18-9.65-25.74-14.33-39.32-19.89C217,85.9,268.67,122.12,278.79,147.86,290.72,181.73,251.7,194.61,225.9,192.56Z"/><path class="cls-2" d="M121.64,85.55c-8.43,2.69-18,2.92-26.92,2.22-5.61-.23-10.53-2-16.26-.93-5.73,1.22-9.19,8-3.8,11.81,10.12,7.26,22.81,8,34.46,11.41C60.5,149,.29,101.64,7.61,81.22c6.32-21.71,43.76-25.16,59.26-23.87C85.71,59.05,118.19,72.38,121.64,85.55Z"/><path class="cls-3" d="M176,68.52c3.8-5.38,18.31-24.69,1.7-19.83-7.67,3.8-15.1,17.14-18.61,15-17.14-10.3-14.62-26.68,1.46-39.15,22.94-18,62-19.36,81.8-1.34,7.54,6.9,3.74,16.79-.47,23.64C228.53,67.76,197.35,70.75,176,68.52Z"/><path class="cls-4" d="M176,68.52c-25.16,32-26.62,30.37-18.43,32.88,23,7.14,45.81,13.4,61.43,27.79,17.32,16.27,16.62,32.83-8.83,31.19C189,157.92,167.45,149.32,152.88,133a112.06,112.06,0,0,0-14.63-11.29h0a75,75,0,0,0-19.25-9.6c-10.23-2.69-59.56-9.59-44.81-23,5.85-5.27,14.62-1.52,22-1.35,8.66.24,17.26.06,25.62-2.22,21.65-5.62,39.61-24.57,53.83-35.81,4-3.16,11.35-3.51,9.59,3.34C183.77,59.16,180.09,62.79,176,68.52Z"/></svg>