<svg xmlns="http://www.w3.org/2000/svg" data-name="Layer 1" viewBox="0 0 100 125" x="0px" y="0px"><title>Artboard 15</title><path d="M87.89,2.05l-64.22.15A10.74,10.74,0,0,0,13,12.94V72.38H3.5A2.5,2.5,0,0,0,1,74.88V81.1A10.74,10.74,0,0,0,11.72,91.83H60.46a2.5,2.5,0,0,0,0-5H11.72A5.73,5.73,0,0,1,6,81.1V77.38H60.46a2.5,2.5,0,1,0,0-5H18V12.94a5.74,5.74,0,0,1,5.72-5.73l54.94-.13a11,11,0,0,0-1.83,6.09V26.72a2.5,2.5,0,0,0,5,0V13.16a6.12,6.12,0,0,1,6.11-6.11h0A6.12,6.12,0,0,1,94,13.16V16.5H88.54a2.5,2.5,0,0,0,0,5h8A2.5,2.5,0,0,0,99,19V13.16A11.12,11.12,0,0,0,87.89,2.05Z"/><path d="M61.74,64.1a3.17,3.17,0,0,1,1.89,2.21,8.1,8.1,0,0,0,4.43,5.59,8.57,8.57,0,0,0,7.56,0,3.65,3.65,0,0,1,3.18,0,8.58,8.58,0,0,0,7.56,0,8.09,8.09,0,0,0,4.43-5.59,3.17,3.17,0,0,1,1.89-2.21,8.08,8.08,0,0,0,4.78-5.68,7.83,7.83,0,0,0-1.81-7A2.91,2.91,0,0,1,95,48.78a7.83,7.83,0,0,0-1.44-6.92,8.45,8.45,0,0,0-6.88-3.2,3.42,3.42,0,0,1-2.82-1.27,8.57,8.57,0,0,0-13.29,0,3.51,3.51,0,0,1-2.82,1.27,8.43,8.43,0,0,0-6.88,3.2,7.83,7.83,0,0,0-1.44,6.92,2.91,2.91,0,0,1-.65,2.68,7.84,7.84,0,0,0-1.81,7A8.09,8.09,0,0,0,61.74,64.1Zm.78-9.34a7.9,7.9,0,0,0,1.73-7.27A2.85,2.85,0,0,1,64.78,45a3.43,3.43,0,0,1,2.83-1.29,8.6,8.6,0,0,0,6.85-3.16,3.57,3.57,0,0,1,5.47,0h0a8.59,8.59,0,0,0,6.85,3.15A3.43,3.43,0,0,1,89.62,45a2.85,2.85,0,0,1,.54,2.54,7.9,7.9,0,0,0,1.73,7.27,2.85,2.85,0,0,1,.68,2.56,3.14,3.14,0,0,1-1.88,2.18,8.18,8.18,0,0,0-4.8,5.77,3.12,3.12,0,0,1-1.73,2.14,3.6,3.6,0,0,1-3.18,0,8.69,8.69,0,0,0-7.55,0,3.6,3.6,0,0,1-3.18,0,3.13,3.13,0,0,1-1.73-2.14,8.18,8.18,0,0,0-4.8-5.77,3.14,3.14,0,0,1-1.88-2.18A2.85,2.85,0,0,1,62.51,54.76Z"/><path d="M70.4,77a2.5,2.5,0,0,0-2.5,2.5V95.45a2.5,2.5,0,0,0,4,2l5.35-4.12,5.35,4.12a2.5,2.5,0,0,0,4-2V79.64a2.5,2.5,0,0,0-5,0V90.36l-2.85-2.2a2.5,2.5,0,0,0-3.05,0l-2.85,2.2V79.5A2.5,2.5,0,0,0,70.4,77Z"/><path d="M29.6,23.71H65.14a2.5,2.5,0,0,0,0-5H29.6a2.5,2.5,0,0,0,0,5Z"/><path d="M58.14,33.82a2.5,2.5,0,0,0-2.5-2.5h-26a2.5,2.5,0,0,0,0,5h26A2.5,2.5,0,0,0,58.14,33.82Z"/><path d="M50.23,46.44a2.5,2.5,0,0,0-2.5-2.5H29.6a2.5,2.5,0,0,0,0,5H47.73A2.5,2.5,0,0,0,50.23,46.44Z"/><path d="M45.81,56.55H29.66a2.5,2.5,0,0,0,0,5H45.81a2.5,2.5,0,0,0,0-5Z"/><text x="0" y="115" fill="#000000" font-size="5px" font-weight="bold" font-family="'Helvetica Neue', Helvetica, Arial-Unicode, Arial, Sans-serif">Created by Gregor Cresnar</text><text x="0" y="120" fill="#000000" font-size="5px" font-weight="bold" font-family="'Helvetica Neue', Helvetica, Arial-Unicode, Arial, Sans-serif">from the Noun Project</text></svg>