<svg xmlns="http://www.w3.org/2000/svg" xmlns:xlink="http://www.w3.org/1999/xlink" version="1.1" x="0px" y="0px" viewBox="0 0 100 125" style="enable-background:new 0 0 100 100;" xml:space="preserve"><g><path d="M84.86,5.069H50.063h-0.125H15.14C9.549,5.069,5,9.617,5,15.208v34.66v0.264v34.66c0,5.591,4.549,10.139,10.14,10.139   h34.798h0.125H84.86c5.591,0,10.14-4.548,10.14-10.139v-34.66v-0.264v-34.66C95,9.617,90.451,5.069,84.86,5.069z M92,15.208v33.41   H80.166c0.266-0.846,0.41-1.732,0.41-2.636c0-0.04-0.006-0.08-0.006-0.121c0.005-0.372-0.006-0.747-0.047-1.125   c-0.44-4.067-3.71-7.354-7.774-7.814c-2.524-0.284-5.044,0.513-6.923,2.189c-1.882,1.681-2.962,4.09-2.962,6.608   c0,0.053,0.006,0.105,0.007,0.158c-0.013,0.943,0.127,1.861,0.404,2.74h-11.96V34.712c0-0.46-0.253-0.884-0.658-1.102   c-0.216-0.116-0.455-0.159-0.69-0.14c-0.25-0.005-0.5,0.056-0.717,0.2c-0.753,0.499-1.601,0.821-2.489,0.959   c-0.033,0.004-0.065,0.011-0.097,0.014c-0.204,0.028-0.412,0.037-0.619,0.045c-0.279,0.005-0.558,0.01-0.842-0.021   c-2.914-0.315-5.269-2.657-5.599-5.569c-0.209-1.841,0.349-3.608,1.57-4.977c1.065-1.192,2.535-1.934,4.108-2.093   c0.275-0.022,0.549-0.033,0.819-0.021c0.068,0.002,0.134,0.01,0.201,0.015c1.054,0.083,2.058,0.419,2.948,1.009   c0.216,0.143,0.467,0.205,0.717,0.199c0.235,0.019,0.474-0.024,0.689-0.14c0.406-0.218,0.659-0.641,0.659-1.102V8.069H84.86   C88.797,8.069,92,11.271,92,15.208z M15.14,8.069h33.548v11.876c-0.887-0.295-1.821-0.451-2.773-0.451   c-0.014,0-0.028,0.002-0.043,0.002c-0.353-0.003-0.708,0.012-1.067,0.05c-4.066,0.441-7.353,3.711-7.813,7.774   c-0.286,2.521,0.512,5.044,2.189,6.923c1.681,1.882,4.09,2.962,6.608,2.962c0.024,0,0.047-0.003,0.071-0.003   c0.189,0.001,0.375-0.013,0.561-0.023c0.044-0.003,0.089-0.004,0.134-0.007c0.732-0.052,1.446-0.187,2.132-0.416v11.861H34.643   c-0.46,0-0.884,0.253-1.102,0.658c-0.123,0.23-0.161,0.485-0.132,0.735c-0.027,0.281,0.03,0.568,0.191,0.811   c0.625,0.943,0.963,2.033,1.016,3.165c0.001,0.247,0.009,0.493-0.019,0.744c-0.315,2.914-2.657,5.269-5.569,5.6   c-1.839,0.203-3.608-0.35-4.977-1.571c-1.221-1.091-1.966-2.608-2.099-4.223c-0.053-1.333,0.278-2.611,1.009-3.714   c0.161-0.244,0.218-0.53,0.191-0.811c0.029-0.249-0.009-0.505-0.132-0.735c-0.218-0.405-0.642-0.658-1.102-0.658H8v-33.41   C8,11.271,11.203,8.069,15.14,8.069z M8,84.792v-33.41h11.834c-0.266,0.846-0.41,1.732-0.41,2.636c0,0.04,0.006,0.08,0.006,0.121   c-0.005,0.372,0.006,0.747,0.047,1.125c0.44,4.067,3.71,7.354,7.774,7.814c0.337,0.038,0.674,0.057,1.009,0.057   c2.175,0,4.286-0.793,5.914-2.246c1.882-1.681,2.962-4.09,2.962-6.608c0-0.053-0.006-0.105-0.007-0.158   c0.013-0.943-0.127-1.862-0.404-2.741h11.96v13.906c0,0.46,0.253,0.884,0.658,1.102c0.215,0.115,0.454,0.158,0.689,0.14   c0.25,0.006,0.501-0.056,0.718-0.199c0.756-0.501,1.607-0.824,2.499-0.961c0.026-0.003,0.051-0.008,0.077-0.011   c0.209-0.029,0.423-0.038,0.636-0.046c0.276-0.005,0.553-0.01,0.835,0.021c2.914,0.315,5.269,2.657,5.599,5.569   c0.209,1.841-0.349,3.608-1.57,4.977c-1.065,1.193-2.537,1.935-4.11,2.093c-0.273,0.021-0.546,0.033-0.814,0.021   c-0.071-0.002-0.141-0.011-0.211-0.015c-1.052-0.084-2.053-0.42-2.941-1.009c-0.216-0.143-0.467-0.205-0.718-0.2   c-0.235-0.019-0.474,0.024-0.688,0.14c-0.406,0.218-0.659,0.641-0.659,1.102v13.92H15.14C11.203,91.931,8,88.729,8,84.792z    M84.86,91.931H51.313V80.054c0.887,0.295,1.821,0.451,2.773,0.451c0.014,0,0.028-0.002,0.042-0.002   c0.353,0.003,0.709-0.012,1.068-0.051c4.066-0.441,7.353-3.711,7.813-7.774c0.286-2.521-0.512-5.044-2.189-6.923   c-1.681-1.882-4.09-2.962-6.608-2.962c-0.023,0-0.045,0.003-0.067,0.003c-0.2-0.002-0.397,0.013-0.595,0.025   c-0.033,0.002-0.066,0.003-0.098,0.005c-0.734,0.051-1.45,0.187-2.138,0.416V51.382h14.045c0.46,0,0.884-0.253,1.102-0.658   c0.123-0.23,0.161-0.485,0.132-0.735c0.027-0.281-0.03-0.568-0.191-0.811c-0.625-0.943-0.963-2.033-1.016-3.165   c-0.001-0.247-0.009-0.493,0.019-0.744c0.315-2.914,2.657-5.269,5.569-5.6c1.834-0.207,3.608,0.35,4.977,1.571   c1.221,1.091,1.966,2.608,2.099,4.223c0.053,1.333-0.278,2.611-1.009,3.714c-0.161,0.244-0.218,0.53-0.191,0.811   c-0.029,0.249,0.009,0.505,0.132,0.735c0.218,0.405,0.642,0.658,1.102,0.658H92v33.41C92,88.729,88.797,91.931,84.86,91.931z"/></g><text x="0" y="115" fill="#000000" font-size="5px" font-weight="bold" font-family="'Helvetica Neue', Helvetica, Arial-Unicode, Arial, Sans-serif">Created by Maxim Kulikov</text><text x="0" y="120" fill="#000000" font-size="5px" font-weight="bold" font-family="'Helvetica Neue', Helvetica, Arial-Unicode, Arial, Sans-serif">from the Noun Project</text></svg>