<svg id="Layer_1" data-name="Layer 1" xmlns="http://www.w3.org/2000/svg" viewBox="0 0 816 700"><defs><style>.cls-1{fill:#f5f5f5;}.cls-2{fill:#1c6eb8;}.cls-3{fill:#4a9bd8;}.cls-4{fill:none;stroke:#29abe2;stroke-miterlimit:10;stroke-width:2.05px;}</style></defs><title>personalizzato</title><path id="Rectangle_33" data-name="Rectangle 33" class="cls-1" d="M51.68,164.16H400.24a37.26,37.26,0,0,1,37.24,37.24h0a37.26,37.26,0,0,1-37.24,37.25H51.68A37.26,37.26,0,0,1,14.44,201.4h0A37.26,37.26,0,0,1,51.68,164.16Z"/><path id="Rectangle_31" data-name="Rectangle 31" class="cls-1" d="M114.89,508.13H419.72a56.63,56.63,0,0,1,56.55,56.55h0a56.63,56.63,0,0,1-56.55,56.55H114.89a56.63,56.63,0,0,1-56.55-56.55h0A56.63,56.63,0,0,1,114.89,508.13Z"/><path id="Rectangle_32" data-name="Rectangle 32" class="cls-1" d="M466.85,317h285c29.43,0,53.15,21.25,53.15,47.59h0c0,26.35-23.72,47.59-53.15,47.59h-285c-29.43,0-53.15-21.24-53.15-47.59h0C413.7,338.41,437.58,317,466.85,317Z"/><path class="cls-2" d="M335.56,448.69c-1.16-11,.65-21.92.36-32.89a7.71,7.71,0,0,0-2.12-4c-10.23-4-21.42-6-29.69-14-1-1-.05-2-1.08-3-9.3-9-9.55-20.91-10.84-32.85-1.47-19.9-.92-38.8.68-58.7,1.7-14.93,10.36-27.9,22-37.91,7.77-6,16.57-8,23.39-14.05,1.94-2-1-6-2-9-18.83-32.8-7.64-74.67,25.5-96.93,2-1,3.09-2,5.13-3a93.13,93.13,0,0,1,27.29-10.25,92.66,92.66,0,0,1,23.52-.23c23.1,4.76,42.6,17.59,53.73,39.56,6.53,12,8.31,25,9.27,38.05,0,15.06-6.9,27.14-10.6,42.2,0,2,2.06,3,3.09,4,16.2,7.95,31.56,17.94,38.19,35,10.08,29.12,7.43,59.29,5.69,88.43.3,7-2.4,14.07-7.14,20.08-7.6,9-18.4,13-30.3,15-1,0-1.92,2-1.88,3,.87,23.07,2.53,47.16.64,70.22-.85,19.06-16.36,38-36.58,36.84-30.32-.22-65.23,10.48-91.2-10.66a39.58,39.58,0,0,1-13.88-27c-.93-13,1.05-24.92-1.15-37.89Zm29.19-13.85c1.41,17-1.42,33.93,1.55,51.91,1,5,6.05,8,11.13,9.05a387.61,387.61,0,0,0,58.74,1.37c3-1,5,0,8.07-1.95s5-6,6-9c1.9-33.05-3.32-66.13-1.79-99.18,13.83-4,35.26,6.07,41.43-12-2.23-27.1,3.48-54.22-5.52-80.3-2.23-6-7.42-11-11.56-15-1-1-3-1-5.1-3-6.13-4-12.16-5-19.09-2.94C432.86,279.91,417.19,288,399.24,286c-13-2-25-6.92-37-12.86-15-7.93-31.49,3.11-37.1,17.07a95.9,95.9,0,0,0-4.55,16c-.39,22.92-1.61,46.82,2.09,69.74,9.43,12,25.27,4,38.46,8a2.26,2.26,0,0,1,2.09,2c.59,16,1.16,32.94,1.53,48.9ZM403.47,258c15.85-1.06,31.61-7.14,41.41-21.22,13.67-21.11,9.91-47.17-7.14-64.05-20.76-19.86-56.26-17.5-74.1,8.58-1.06,2-2.08,3-3.12,5-9.42,17-6.73,37,5.17,52.87,9.91,11.93,22.87,16.87,37.78,18.8Z"/><path class="cls-3" d="M403,581c-44.73-2.44-87.15-5.87-132.65-16.24-1,0-3-2-4-2-22.35-4.18-41.62-10.31-61-20.38-8.15-5-16.36-10-22.45-18-3.07-3-3-7.94-4-10.92-4-10.92,2.53-20.77,12.06-27.65C227,460.19,268.19,450.41,309,446.59a50.19,50.19,0,0,1,.11,24.89c-13.35,4.91-26.72,3.84-40.18,7.75-6.21,1.95-12.43,2.91-18.67,4.86-8.33,2.93-16.68,5.86-25.09,10.77-4.24,3.94-10.54,6.88-10.7,13.82.89,6.94,7,10.95,13.15,15,12.26,7,25.6,10.12,38.9,13.21,76.6,16.52,148.62,20.23,223.79,14.86,18.27-1.85,35.47-3.71,52.6-7.59C556,540.22,569,538.31,581,532.36c8-5,18.81-8.93,17.7-20,0-3-2-6.06-4-8.09C577.73,490,557,485.86,536.1,482.72c-6-1-11-3.08-16.92-4.11l-5,0a7.72,7.72,0,0,1-4-2c-2.1-8.05-3.3-18.1.47-26.12,38.93,6.2,77.51,13.41,110.24,38.84,6,5.08,11,11.18,12.11,19.27,2.29,16.17-8.29,27.2-20.18,35.18C549.21,581.51,473.93,581.67,403,581Z"/><circle class="cls-4" cx="617.95" cy="245.2" r="12.32"/><polygon class="cls-4" points="149.96 285.65 138.56 288.17 127.17 290.69 130.69 279.57 134.2 268.44 142.08 277.05 149.96 285.65"/><polygon class="cls-4" points="584.32 648.4 572.96 645.75 561.59 643.11 569.56 634.59 577.54 626.07 580.93 637.23 584.32 648.4"/></svg>