<?xml version="1.0" encoding="utf-8"?>
<!-- Generator: Adobe Illustrator 23.1.0, SVG Export Plug-In . SVG Version: 6.00 Build 0)  -->
<svg version="1.1" id="Layer_1" xmlns="http://www.w3.org/2000/svg" xmlns:xlink="http://www.w3.org/1999/xlink" x="0px" y="0px"
	 viewBox="0 0 657 389.2" style="enable-background:new 0 0 657 389.2;" xml:space="preserve">
<style type="text/css">
	.st0{fill:#F5F5F5;}
	.st1{fill:#1C6EB8;}
	.st2{opacity:0.27;}
	.st3{fill:#97ABFF;}
	.st4{clip-path:url(#SVGID_3_);fill:#97ABFF;}
	.st5{clip-path:url(#SVGID_6_);fill:#97ABFF;}
	.st6{clip-path:url(#SVGID_8_);fill:#97ABFF;}
	.st7{clip-path:url(#SVGID_10_);fill:#97ABFF;}
	.st8{clip-path:url(#SVGID_12_);fill:#97ABFF;}
	.st9{clip-path:url(#SVGID_14_);fill:#97ABFF;}
	.st10{clip-path:url(#SVGID_16_);fill:#97ABFF;}
	.st11{clip-path:url(#SVGID_18_);fill:#97ABFF;}
	.st12{clip-path:url(#SVGID_20_);fill:#97ABFF;}
	.st13{clip-path:url(#SVGID_22_);fill:#97ABFF;}
	.st14{clip-path:url(#SVGID_24_);fill:#97ABFF;}
	.st15{clip-path:url(#SVGID_26_);fill:#97ABFF;}
	.st16{clip-path:url(#SVGID_28_);fill:#97ABFF;}
	.st17{clip-path:url(#SVGID_30_);fill:#97ABFF;}
	.st18{clip-path:url(#SVGID_32_);fill:#97ABFF;}
	.st19{clip-path:url(#SVGID_34_);fill:#97ABFF;}
	.st20{clip-path:url(#SVGID_36_);fill:#97ABFF;}
	.st21{clip-path:url(#SVGID_38_);fill:#97ABFF;}
	.st22{clip-path:url(#SVGID_40_);fill:#97ABFF;}
	.st23{clip-path:url(#SVGID_42_);fill:#97ABFF;}
	.st24{clip-path:url(#SVGID_44_);fill:#97ABFF;}
	.st25{clip-path:url(#SVGID_46_);fill:#97ABFF;}
	.st26{clip-path:url(#SVGID_48_);fill:#97ABFF;}
	.st27{clip-path:url(#SVGID_50_);fill:#97ABFF;}
	.st28{clip-path:url(#SVGID_52_);fill:#97ABFF;}
	.st29{clip-path:url(#SVGID_54_);fill:#97ABFF;}
	.st30{clip-path:url(#SVGID_56_);fill:#97ABFF;}
	.st31{clip-path:url(#SVGID_58_);fill:#97ABFF;}
	.st32{clip-path:url(#SVGID_60_);fill:#97ABFF;}
	.st33{clip-path:url(#SVGID_62_);fill:#97ABFF;}
	.st34{clip-path:url(#SVGID_64_);fill:#97ABFF;}
	.st35{clip-path:url(#SVGID_66_);fill:#97ABFF;}
	.st36{clip-path:url(#SVGID_68_);fill:#97ABFF;}
	.st37{clip-path:url(#SVGID_70_);fill:#97ABFF;}
	.st38{clip-path:url(#SVGID_72_);fill:#97ABFF;}
	.st39{clip-path:url(#SVGID_74_);fill:#97ABFF;}
	.st40{clip-path:url(#SVGID_76_);fill:#97ABFF;}
	.st41{clip-path:url(#SVGID_78_);fill:#97ABFF;}
	.st42{clip-path:url(#SVGID_80_);fill:#97ABFF;}
	.st43{clip-path:url(#SVGID_82_);fill:#97ABFF;}
	.st44{clip-path:url(#SVGID_84_);fill:#97ABFF;}
	.st45{clip-path:url(#SVGID_86_);fill:#97ABFF;}
	.st46{clip-path:url(#SVGID_88_);fill:#97ABFF;}
	.st47{clip-path:url(#SVGID_90_);fill:#97ABFF;}
	.st48{clip-path:url(#SVGID_92_);fill:#97ABFF;}
	.st49{clip-path:url(#SVGID_94_);fill:#97ABFF;}
	.st50{clip-path:url(#SVGID_96_);fill:#97ABFF;}
	.st51{clip-path:url(#SVGID_98_);fill:#97ABFF;}
	.st52{clip-path:url(#SVGID_100_);fill:#97ABFF;}
	.st53{clip-path:url(#SVGID_102_);fill:#97ABFF;}
	.st54{clip-path:url(#SVGID_104_);fill:#97ABFF;}
	.st55{clip-path:url(#SVGID_106_);fill:#97ABFF;}
	.st56{clip-path:url(#SVGID_108_);fill:#97ABFF;}
	.st57{clip-path:url(#SVGID_110_);fill:#97ABFF;}
	.st58{opacity:0.26;}
	.st59{fill:#57A4DD;}
</style>
<path id="Rectangle_31" class="st0" d="M267.9,72.7h221c22.6,0,41,18.4,41,41l0,0c0,22.6-18.4,41-41,41h-221c-22.6,0-41-18.4-41-41
	l0,0C226.9,91.1,245.3,72.7,267.9,72.7z"/>
<path id="Rectangle_32" class="st0" d="M52.3,226.7h185c19.1,0,34.5,15.4,34.5,34.5l0,0c0,19.1-15.4,34.5-34.5,34.5h-185
	c-19.1,0-34.5-15.4-34.5-34.5l0,0C17.8,242.2,33.3,226.7,52.3,226.7z"/>
<path id="Rectangle_33" class="st0" d="M367.8,214.2h253c14.9,0,27,12.1,27,27l0,0c0,14.9-12.1,27-27,27h-253c-14.9,0-27-12.1-27-27
	l0,0C340.8,226.3,352.9,214.2,367.8,214.2z"/>
<g>
	<path class="st1" d="M268.7,306c-11.5,3.4-24.9-0.5-30.6-11.3c-20.7,5.6-39.2-12.1-28.9-28.1c-3.1-4.6-5.9-11-8.6-15.4
		c-6.2-10-13.6-17.2-21.6-26.3c-0.8-0.9-1.1-1.8-2-2.8c-3.2,2.8-7.2,3.4-11.6,3.3c-2.4-0.1-9.8,1.3-17.9-0.6
		c-2.6-0.6-19.1-4.7-26.3-17.9c-1.8-3.2-4-8.7,4.1-48.7c4.5-22.3,6.1-25.5,7.7-28c8.5-13.6,24.1-24.5,36.3-22.8
		c5.1,0.7,10.1,1.6,15.2,2.3c7.9,1,10.2,3.4,11.2,11.4c0.9-0.1,14.4,0.5,15.3,0.4c12.4-1,11.8-1.6,24.1-2.8c6.4-0.6,12.4-0.1,18,2.3
		c8.2,3.4,17.3,6,25.5,9.6c1.9,0.8,3.6,2.6,5.5,3.9c2.6-2.4,7.3-5.6,10.2-8.1c6.3-5.6,10.7-8.2,16.4-11.5
		c8.2-4.8,14.5-9.2,23.4-11.6c24.8-6.5,45.9-1.3,68.3,10.4c2.8,1.5,5.8,2.7,8.5,4.5c6,4,12.6,3.4,19,1.4c6.2-1.9,14.6-5.7,20.7-7.7
		c0.9-0.3,1.9-0.9,3-1.2c-0.1-1,0.2-2.3-0.1-3.4c-2.2-7.3,0.9-16.4,8.9-18.5c9.5-2.5,16.4-5.8,20.3-5.6c12.9,0.8,26.7,8.3,30.1,19.6
		c1.9,6.5,1.9,5.5,4.7,19.1c1.8,8.4,3.9,13.6,1.4,19.7c-0.4,1-1.6,3.9-3.5,4.1c-3.1,0.2-6.6-6.9-7.1-10.1c-1.4-8-3.5-13.9-4.9-21.9
		c-1.7-10.2-9.2-17.5-17.5-16.4c-3.4,0.4-6.6,1.7-9.9,2.6c-3.4,0.9-6.6,1.6-10.2,2.7c5.8,35.4,10.2,71.2,14.8,107.8
		c2,0.3,4.1,1,6,1.1c6,0.5,12.1,1.3,18,1.1c7-0.2,12.6-2.2,12.1-9.6c-0.2-3.9,0.1-12.8-0.5-16.6c-0.7-4.6,1.1-9.7,4-10
		c3-0.3,6.4,4.5,7,9.3c0.8,5.9,0.7,15.1,0.2,20.8c-1.4,16.3-11.3,22.3-27,20.6c-6.1-0.7-12.2-1.9-18.3-2.4
		c-6.5-0.5-10.7-3.9-13.7-10.3c-2.2,1.2-4.3,3-6.4,4.2c-3.5,1.9-7.3,3.3-10.9,4.9c-2.4,1.1-5,1.6-7.6,2.3c-0.8,0.2-1.6,0.8-1.9,1.4
		c-4.3,8.1-11.4,11.5-20.5,11.9c-0.2,0-0.2,0.4-0.5,0.5c0.1,14.4-7.3,22.6-21.2,24.8c-1.1,17.8-6.3,23.1-23.8,25.3
		c0.5,17.8-15.1,26.7-29.6,22.1c-1.1,3-1.6,6.2-2.8,9c-3.6,8.2-10.8,12.1-20.5,11.9c-10.4-0.2-17.7-4.9-22.5-13.3
		c-0.2-0.3-0.3-0.6-0.4-0.9c0-0.1-0.5,0.4-0.5,0.3C283,320.6,275.7,317.4,268.7,306z M322.2,286.9c2.3,0.9,4.4,1.1,6.4,1.9
		c6.9,3.1,13.5,7,20.4,10.2c4.9,2.3,10.7,0.6,12.8-3.8c2.2-4.5-1.4-11.3-6.3-13.6c-2.1-1-4.2-2.1-6.3-3.1
		c-8.3-3.9-15.4-5.9-23.6-9.6c-3-1.3-4.4-4.2-3.9-6.9c0.5-2.9,2.6-5.8,5.8-6c2.2-0.1,4.7,0.7,6.7,1.6c12.8,5.5,25.5,11.5,38.4,17.6
		c5.2,2.4,10.6,0.8,12.9-4c2.2-4.7-0.1-9.6-4.9-12.6c-9.1-5.8-12.6-7.1-20.3-10.5c-5.8-2.6-11.9-4.4-17.6-7
		c-3.2-1.5-7.3-4.4-6.6-7.3c1-4.6,5.2-7.2,9.8-5.5c4.5,1.7,8.8,3.8,13.3,5.7c11.4,5,22.7,10.6,34.3,16c5,2.3,10.5,0.1,12.6-4.5
		c2.3-4.9,0.5-10.3-4.7-12.7c-15.8-7.3-31.9-13.5-47.5-20c-4.1-1.7-5-5.7-3.3-9.4c1.6-3.6,6.2-2.1,10.2-0.6c2.7,1,5.6,1.7,8.3,2.9
		c16.2,6.8,31.3,11.5,47.8,19.3c5.2,2.5,11.2-0.1,13-5.3c1.8-4.9-0.6-9.9-5.8-12.4c-26.5-12.6-52.7-23.2-78.6-33.6
		c-1.2-0.5-2.8-0.6-4.1-0.1c-19.4,6.7-38.9,13.9-58.6,20.3c-11.7,3.7-23.8-0.9-29-10.3c-5.4-9.8-2.1-21.3,7.6-29.7
		c3.9-3.3,7.2-7.3,11.3-10.8c-0.7-0.4-1-0.4-1.5-0.6c-7.8-3.3-15.7-6.5-23.4-9.7c-3.7-1.6-7.6-2.1-11.9-1.7
		c-12.9,1.1-25.9,2.1-38.8,3c-0.7,0.1-2.8-0.2-3.7-0.1c-2.1,12.3-4.2,24.1-6.2,35.7c-1.9,11.3-4.4,21.5-6.3,35.5
		c-0.7,4.1,1.3,5.6,4.9,9.1c10.5,10,18.1,21.6,25.5,33.4c2,3.3,4.3,5.9,6.3,9.1c12.7-5.4,23.4-3.5,32.6,5.2c5.6-3.6,11.6-4,18.4-3.2
		s12.2,2.4,16.2,7.2C300.5,259.3,324.8,267.6,322.2,286.9z M455.2,125.2c-8.2,2.2-16,5.2-24.2,7.1c-6.8,1.6-13.8,0.9-20.3-2.6
		c-3.7-2-7.3-4.2-11.1-6.2c-23.7-12.5-48-12.7-73.7-2.5c-7.9,3.1-15.7,6.7-22.3,12.6c-11.2,9.9-22.5,19.7-33.8,29.4
		c-4.6,4-8.1,11.1-5.7,15.5c2.5,4.4,9.5,3.6,15.2,1.7c20.7-6.9,40.3-11,60.6-18.3c2.6-0.9,4.9-0.8,7.3,0.2
		c26.9,10.9,55.1,19.5,82.8,32.6c4.4,2.1,7.8,5.2,10.3,9.5c1.4,2.5,2.9,5.4,4.2,8.2c6.6-3.7,13.2-8.1,19.9-11.8
		c0.5-0.3,1.2-1.1,1.1-1.7c-0.4-3.6-1.7-18.2-2.2-21.9c-1.7-13.3-1.8-14.5-3.7-27.6C458.5,141.3,456.3,132.6,455.2,125.2z
		 M182.7,122.1c-3.4-0.5-6.5-0.5-9.6-0.9c-3.5-0.5-6.8-2.1-10.4-2c-8.8,0.3-16.3,6-18.1,13.9c-2.3,10.1-1.2,11.2-5.1,29.5
		c-1.9,9-5.2,19.2-6.1,31.7c-0.2,2.2-0.4,6.5,1.9,10.9c2.3,4.5,6,6.9,7.6,7.8c10,6.1,22,1.9,24,1.2
		C171.9,184.7,176.8,154.4,182.7,122.1z M298.4,275c-0.5,0-6.2,1.6-7.5,4.1c-3.1,6-6.7,11.7-9.4,17.7c-1.7,3.7,1.1,8.7,5.5,10.3
		c4.5,1.7,9.6-0.4,11.6-4.2c2.9-5.5,6.7-11.2,9.2-17C310,280.7,304.7,275.1,298.4,275z M262.4,269.6c-2.9,0-5.5,1.5-7.2,4.4
		c-2.1,3.6-2.5,7-4.2,10.7c-1.8,4,0.5,8.7,5.1,10.4c4.6,1.7,9.5-0.3,11.7-4.2c2-3.5,3.9-7.1,5.5-10.8
		C275.6,274.9,269.6,269.8,262.4,269.6z M220.4,275.1c-0.3,5.4,4.3,8.6,10,8.2c4.8-0.3,8.4-3,9.6-8.1c0.8-3.3-0.5-6.4-3.6-8.3
		s-6.6-1.2-10.1,0.5C222.3,269.4,221.1,272.3,220.4,275.1z M330.9,310c0.1-4-4.3-7.9-9.8-8.2c-5.5-0.3-8.6,4.7-9.2,9.5
		c-0.5,4.4,4.1,9.2,9.2,9.6C327.5,321.4,330.1,316,330.9,310z"/>
	<path class="st1" d="M130.2,198.9"/>
	<path class="st1" d="M513.4,116.2"/>
</g>
<g class="st2">
	<g>
		<g>
			<g>
				<path id="SVGID_2_" class="st3" d="M253.2,71.2l-18.5,0.9c-1,0-1.9-0.8-2-1.8l0,0c0-1,0.8-1.9,1.8-2l18.5-0.9c1,0,1.9,0.8,2,1.8
					l0,0C255,70.2,254.2,71.1,253.2,71.2z"/>
			</g>
			<g>
				<g>
					<g>
						<g>
							<g>
								<defs>
									<path id="SVGID_1_" d="M253.2,71.2l-18.5,0.9c-1,0-1.9-0.8-2-1.8l0,0c0-1,0.8-1.9,1.8-2l18.5-0.9c1,0,1.9,0.8,2,1.8l0,0
										C255,70.2,254.2,71.1,253.2,71.2z"/>
								</defs>
								<clipPath id="SVGID_3_">
									<use xlink:href="#SVGID_1_"  style="overflow:visible;"/>
								</clipPath>
								<polygon class="st4" points="251,72.1 255,70.3 255,72.1 								"/>
							</g>
						</g>
					</g>
				</g>
			</g>
			<g>
				<g>
					<g>
						<g>
							<g>
								<defs>
									<path id="SVGID_5_" d="M253.2,71.2l-18.5,0.9c-1,0-1.9-0.8-2-1.8l0,0c0-1,0.8-1.9,1.8-2l18.5-0.9c1,0,1.9,0.8,2,1.8l0,0
										C255,70.2,254.2,71.1,253.2,71.2z"/>
								</defs>
								<clipPath id="SVGID_6_">
									<use xlink:href="#SVGID_5_"  style="overflow:visible;"/>
								</clipPath>
								<polygon class="st5" points="249.9,72.1 255,69.9 255,70.3 251,72.1 								"/>
							</g>
						</g>
					</g>
				</g>
			</g>
			<g>
				<g>
					<g>
						<g>
							<g>
								<defs>
									<path id="SVGID_7_" d="M253.2,71.2l-18.5,0.9c-1,0-1.9-0.8-2-1.8l0,0c0-1,0.8-1.9,1.8-2l18.5-0.9c1,0,1.9,0.8,2,1.8l0,0
										C255,70.2,254.2,71.1,253.2,71.2z"/>
								</defs>
								<clipPath id="SVGID_8_">
									<use xlink:href="#SVGID_7_"  style="overflow:visible;"/>
								</clipPath>
								<polygon class="st6" points="248.9,72.1 255,69.4 255,69.9 249.9,72.1 								"/>
							</g>
						</g>
					</g>
				</g>
			</g>
			<g>
				<g>
					<g>
						<g>
							<g>
								<defs>
									<path id="SVGID_9_" d="M253.2,71.2l-18.5,0.9c-1,0-1.9-0.8-2-1.8l0,0c0-1,0.8-1.9,1.8-2l18.5-0.9c1,0,1.9,0.8,2,1.8l0,0
										C255,70.2,254.2,71.1,253.2,71.2z"/>
								</defs>
								<clipPath id="SVGID_10_">
									<use xlink:href="#SVGID_9_"  style="overflow:visible;"/>
								</clipPath>
								<polygon class="st7" points="247.9,72.1 255,69 255,69.4 248.9,72.1 								"/>
							</g>
						</g>
					</g>
				</g>
			</g>
			<g>
				<g>
					<g>
						<g>
							<g>
								<defs>
									<path id="SVGID_11_" d="M253.2,71.2l-18.5,0.9c-1,0-1.9-0.8-2-1.8l0,0c0-1,0.8-1.9,1.8-2l18.5-0.9c1,0,1.9,0.8,2,1.8l0,0
										C255,70.2,254.2,71.1,253.2,71.2z"/>
								</defs>
								<clipPath id="SVGID_12_">
									<use xlink:href="#SVGID_11_"  style="overflow:visible;"/>
								</clipPath>
								<polygon class="st8" points="246.8,72.1 255,68.5 255,69 247.9,72.1 								"/>
							</g>
						</g>
					</g>
				</g>
			</g>
			<g>
				<g>
					<g>
						<g>
							<g>
								<defs>
									<path id="SVGID_13_" d="M253.2,71.2l-18.5,0.9c-1,0-1.9-0.8-2-1.8l0,0c0-1,0.8-1.9,1.8-2l18.5-0.9c1,0,1.9,0.8,2,1.8l0,0
										C255,70.2,254.2,71.1,253.2,71.2z"/>
								</defs>
								<clipPath id="SVGID_14_">
									<use xlink:href="#SVGID_13_"  style="overflow:visible;"/>
								</clipPath>
								<polygon class="st9" points="245.8,72.1 255,68.1 255,68.5 246.8,72.1 								"/>
							</g>
						</g>
					</g>
				</g>
			</g>
			<g>
				<g>
					<g>
						<g>
							<g>
								<defs>
									<path id="SVGID_15_" d="M253.2,71.2l-18.5,0.9c-1,0-1.9-0.8-2-1.8l0,0c0-1,0.8-1.9,1.8-2l18.5-0.9c1,0,1.9,0.8,2,1.8l0,0
										C255,70.2,254.2,71.1,253.2,71.2z"/>
								</defs>
								<clipPath id="SVGID_16_">
									<use xlink:href="#SVGID_15_"  style="overflow:visible;"/>
								</clipPath>
								<polygon class="st10" points="244.8,72.1 255,67.6 255,68.1 245.8,72.1 								"/>
							</g>
						</g>
					</g>
				</g>
			</g>
			<g>
				<g>
					<g>
						<g>
							<g>
								<defs>
									<path id="SVGID_17_" d="M253.2,71.2l-18.5,0.9c-1,0-1.9-0.8-2-1.8l0,0c0-1,0.8-1.9,1.8-2l18.5-0.9c1,0,1.9,0.8,2,1.8l0,0
										C255,70.2,254.2,71.1,253.2,71.2z"/>
								</defs>
								<clipPath id="SVGID_18_">
									<use xlink:href="#SVGID_17_"  style="overflow:visible;"/>
								</clipPath>
								<polygon class="st11" points="243.7,72.1 254.5,67.4 255,67.4 255,67.6 244.8,72.1 								"/>
							</g>
						</g>
					</g>
				</g>
			</g>
			<g>
				<g>
					<g>
						<g>
							<g>
								<defs>
									<path id="SVGID_19_" d="M253.2,71.2l-18.5,0.9c-1,0-1.9-0.8-2-1.8l0,0c0-1,0.8-1.9,1.8-2l18.5-0.9c1,0,1.9,0.8,2,1.8l0,0
										C255,70.2,254.2,71.1,253.2,71.2z"/>
								</defs>
								<clipPath id="SVGID_20_">
									<use xlink:href="#SVGID_19_"  style="overflow:visible;"/>
								</clipPath>
								<polygon class="st12" points="242.7,72.1 253.5,67.4 254.5,67.4 243.7,72.1 								"/>
							</g>
						</g>
					</g>
				</g>
			</g>
			<g>
				<g>
					<g>
						<g>
							<g>
								<defs>
									<path id="SVGID_21_" d="M253.2,71.2l-18.5,0.9c-1,0-1.9-0.8-2-1.8l0,0c0-1,0.8-1.9,1.8-2l18.5-0.9c1,0,1.9,0.8,2,1.8l0,0
										C255,70.2,254.2,71.1,253.2,71.2z"/>
								</defs>
								<clipPath id="SVGID_22_">
									<use xlink:href="#SVGID_21_"  style="overflow:visible;"/>
								</clipPath>
								<polygon class="st13" points="241.6,72.1 252.4,67.4 253.5,67.4 242.7,72.1 								"/>
							</g>
						</g>
					</g>
				</g>
			</g>
			<g>
				<g>
					<g>
						<g>
							<g>
								<defs>
									<path id="SVGID_23_" d="M253.2,71.2l-18.5,0.9c-1,0-1.9-0.8-2-1.8l0,0c0-1,0.8-1.9,1.8-2l18.5-0.9c1,0,1.9,0.8,2,1.8l0,0
										C255,70.2,254.2,71.1,253.2,71.2z"/>
								</defs>
								<clipPath id="SVGID_24_">
									<use xlink:href="#SVGID_23_"  style="overflow:visible;"/>
								</clipPath>
								<polygon class="st14" points="240.6,72.1 251.4,67.4 252.4,67.4 241.6,72.1 								"/>
							</g>
						</g>
					</g>
				</g>
			</g>
			<g>
				<g>
					<g>
						<g>
							<g>
								<defs>
									<path id="SVGID_25_" d="M253.2,71.2l-18.5,0.9c-1,0-1.9-0.8-2-1.8l0,0c0-1,0.8-1.9,1.8-2l18.5-0.9c1,0,1.9,0.8,2,1.8l0,0
										C255,70.2,254.2,71.1,253.2,71.2z"/>
								</defs>
								<clipPath id="SVGID_26_">
									<use xlink:href="#SVGID_25_"  style="overflow:visible;"/>
								</clipPath>
								<polygon class="st15" points="239.6,72.1 250.4,67.4 251.4,67.4 240.6,72.1 								"/>
							</g>
						</g>
					</g>
				</g>
			</g>
			<g>
				<g>
					<g>
						<g>
							<g>
								<defs>
									<path id="SVGID_27_" d="M253.2,71.2l-18.5,0.9c-1,0-1.9-0.8-2-1.8l0,0c0-1,0.8-1.9,1.8-2l18.5-0.9c1,0,1.9,0.8,2,1.8l0,0
										C255,70.2,254.2,71.1,253.2,71.2z"/>
								</defs>
								<clipPath id="SVGID_28_">
									<use xlink:href="#SVGID_27_"  style="overflow:visible;"/>
								</clipPath>
								<polygon class="st16" points="238.5,72.1 249.3,67.4 250.4,67.4 239.6,72.1 								"/>
							</g>
						</g>
					</g>
				</g>
			</g>
			<g>
				<g>
					<g>
						<g>
							<g>
								<defs>
									<path id="SVGID_29_" d="M253.2,71.2l-18.5,0.9c-1,0-1.9-0.8-2-1.8l0,0c0-1,0.8-1.9,1.8-2l18.5-0.9c1,0,1.9,0.8,2,1.8l0,0
										C255,70.2,254.2,71.1,253.2,71.2z"/>
								</defs>
								<clipPath id="SVGID_30_">
									<use xlink:href="#SVGID_29_"  style="overflow:visible;"/>
								</clipPath>
								<polygon class="st17" points="237.5,72.1 248.3,67.4 249.3,67.4 238.5,72.1 								"/>
							</g>
						</g>
					</g>
				</g>
			</g>
			<g>
				<g>
					<g>
						<g>
							<g>
								<defs>
									<path id="SVGID_31_" d="M253.2,71.2l-18.5,0.9c-1,0-1.9-0.8-2-1.8l0,0c0-1,0.8-1.9,1.8-2l18.5-0.9c1,0,1.9,0.8,2,1.8l0,0
										C255,70.2,254.2,71.1,253.2,71.2z"/>
								</defs>
								<clipPath id="SVGID_32_">
									<use xlink:href="#SVGID_31_"  style="overflow:visible;"/>
								</clipPath>
								<polygon class="st18" points="236.5,72.1 247.2,67.4 248.3,67.4 237.5,72.1 								"/>
							</g>
						</g>
					</g>
				</g>
			</g>
			<g>
				<g>
					<g>
						<g>
							<g>
								<defs>
									<path id="SVGID_33_" d="M253.2,71.2l-18.5,0.9c-1,0-1.9-0.8-2-1.8l0,0c0-1,0.8-1.9,1.8-2l18.5-0.9c1,0,1.9,0.8,2,1.8l0,0
										C255,70.2,254.2,71.1,253.2,71.2z"/>
								</defs>
								<clipPath id="SVGID_34_">
									<use xlink:href="#SVGID_33_"  style="overflow:visible;"/>
								</clipPath>
								<polygon class="st19" points="235.4,72.1 246.2,67.4 247.2,67.4 236.5,72.1 								"/>
							</g>
						</g>
					</g>
				</g>
			</g>
			<g>
				<g>
					<g>
						<g>
							<g>
								<defs>
									<path id="SVGID_35_" d="M253.2,71.2l-18.5,0.9c-1,0-1.9-0.8-2-1.8l0,0c0-1,0.8-1.9,1.8-2l18.5-0.9c1,0,1.9,0.8,2,1.8l0,0
										C255,70.2,254.2,71.1,253.2,71.2z"/>
								</defs>
								<clipPath id="SVGID_36_">
									<use xlink:href="#SVGID_35_"  style="overflow:visible;"/>
								</clipPath>
								<polygon class="st20" points="234.4,72.1 245.2,67.4 246.2,67.4 235.4,72.1 								"/>
							</g>
						</g>
					</g>
				</g>
			</g>
			<g>
				<g>
					<g>
						<g>
							<g>
								<defs>
									<path id="SVGID_37_" d="M253.2,71.2l-18.5,0.9c-1,0-1.9-0.8-2-1.8l0,0c0-1,0.8-1.9,1.8-2l18.5-0.9c1,0,1.9,0.8,2,1.8l0,0
										C255,70.2,254.2,71.1,253.2,71.2z"/>
								</defs>
								<clipPath id="SVGID_38_">
									<use xlink:href="#SVGID_37_"  style="overflow:visible;"/>
								</clipPath>
								<polygon class="st21" points="233.3,72.1 244.1,67.4 245.2,67.4 234.4,72.1 								"/>
							</g>
						</g>
					</g>
				</g>
			</g>
			<g>
				<g>
					<g>
						<g>
							<g>
								<defs>
									<path id="SVGID_39_" d="M253.2,71.2l-18.5,0.9c-1,0-1.9-0.8-2-1.8l0,0c0-1,0.8-1.9,1.8-2l18.5-0.9c1,0,1.9,0.8,2,1.8l0,0
										C255,70.2,254.2,71.1,253.2,71.2z"/>
								</defs>
								<clipPath id="SVGID_40_">
									<use xlink:href="#SVGID_39_"  style="overflow:visible;"/>
								</clipPath>
								<polygon class="st22" points="232.6,71.9 243.1,67.4 244.1,67.4 233.3,72.1 232.6,72.1 								"/>
							</g>
						</g>
					</g>
				</g>
			</g>
			<g>
				<g>
					<g>
						<g>
							<g>
								<defs>
									<path id="SVGID_41_" d="M253.2,71.2l-18.5,0.9c-1,0-1.9-0.8-2-1.8l0,0c0-1,0.8-1.9,1.8-2l18.5-0.9c1,0,1.9,0.8,2,1.8l0,0
										C255,70.2,254.2,71.1,253.2,71.2z"/>
								</defs>
								<clipPath id="SVGID_42_">
									<use xlink:href="#SVGID_41_"  style="overflow:visible;"/>
								</clipPath>
								<polygon class="st23" points="232.6,71.5 242.1,67.4 243.1,67.4 232.6,71.9 								"/>
							</g>
						</g>
					</g>
				</g>
			</g>
			<g>
				<g>
					<g>
						<g>
							<g>
								<defs>
									<path id="SVGID_43_" d="M253.2,71.2l-18.5,0.9c-1,0-1.9-0.8-2-1.8l0,0c0-1,0.8-1.9,1.8-2l18.5-0.9c1,0,1.9,0.8,2,1.8l0,0
										C255,70.2,254.2,71.1,253.2,71.2z"/>
								</defs>
								<clipPath id="SVGID_44_">
									<use xlink:href="#SVGID_43_"  style="overflow:visible;"/>
								</clipPath>
								<polygon class="st24" points="232.6,71 241,67.4 242.1,67.4 232.6,71.5 								"/>
							</g>
						</g>
					</g>
				</g>
			</g>
			<g>
				<g>
					<g>
						<g>
							<g>
								<defs>
									<path id="SVGID_45_" d="M253.2,71.2l-18.5,0.9c-1,0-1.9-0.8-2-1.8l0,0c0-1,0.8-1.9,1.8-2l18.5-0.9c1,0,1.9,0.8,2,1.8l0,0
										C255,70.2,254.2,71.1,253.2,71.2z"/>
								</defs>
								<clipPath id="SVGID_46_">
									<use xlink:href="#SVGID_45_"  style="overflow:visible;"/>
								</clipPath>
								<polygon class="st25" points="232.6,70.6 240,67.4 241,67.4 232.6,71 								"/>
							</g>
						</g>
					</g>
				</g>
			</g>
			<g>
				<g>
					<g>
						<g>
							<g>
								<defs>
									<path id="SVGID_47_" d="M253.2,71.2l-18.5,0.9c-1,0-1.9-0.8-2-1.8l0,0c0-1,0.8-1.9,1.8-2l18.5-0.9c1,0,1.9,0.8,2,1.8l0,0
										C255,70.2,254.2,71.1,253.2,71.2z"/>
								</defs>
								<clipPath id="SVGID_48_">
									<use xlink:href="#SVGID_47_"  style="overflow:visible;"/>
								</clipPath>
								<polygon class="st26" points="232.6,70.1 238.9,67.4 240,67.4 232.6,70.6 								"/>
							</g>
						</g>
					</g>
				</g>
			</g>
			<g>
				<g>
					<g>
						<g>
							<g>
								<defs>
									<path id="SVGID_49_" d="M253.2,71.2l-18.5,0.9c-1,0-1.9-0.8-2-1.8l0,0c0-1,0.8-1.9,1.8-2l18.5-0.9c1,0,1.9,0.8,2,1.8l0,0
										C255,70.2,254.2,71.1,253.2,71.2z"/>
								</defs>
								<clipPath id="SVGID_50_">
									<use xlink:href="#SVGID_49_"  style="overflow:visible;"/>
								</clipPath>
								<polygon class="st27" points="232.6,69.7 237.9,67.4 238.9,67.4 232.6,70.1 								"/>
							</g>
						</g>
					</g>
				</g>
			</g>
			<g>
				<g>
					<g>
						<g>
							<g>
								<defs>
									<path id="SVGID_51_" d="M253.2,71.2l-18.5,0.9c-1,0-1.9-0.8-2-1.8l0,0c0-1,0.8-1.9,1.8-2l18.5-0.9c1,0,1.9,0.8,2,1.8l0,0
										C255,70.2,254.2,71.1,253.2,71.2z"/>
								</defs>
								<clipPath id="SVGID_52_">
									<use xlink:href="#SVGID_51_"  style="overflow:visible;"/>
								</clipPath>
								<polygon class="st28" points="232.6,69.2 236.9,67.4 237.9,67.4 232.6,69.7 								"/>
							</g>
						</g>
					</g>
				</g>
			</g>
			<g>
				<g>
					<g>
						<g>
							<g>
								<defs>
									<path id="SVGID_53_" d="M253.2,71.2l-18.5,0.9c-1,0-1.9-0.8-2-1.8l0,0c0-1,0.8-1.9,1.8-2l18.5-0.9c1,0,1.9,0.8,2,1.8l0,0
										C255,70.2,254.2,71.1,253.2,71.2z"/>
								</defs>
								<clipPath id="SVGID_54_">
									<use xlink:href="#SVGID_53_"  style="overflow:visible;"/>
								</clipPath>
								<polygon class="st29" points="232.6,68.8 235.8,67.4 236.9,67.4 232.6,69.2 								"/>
							</g>
						</g>
					</g>
				</g>
			</g>
			<g>
				<g>
					<g>
						<g>
							<g>
								<defs>
									<path id="SVGID_55_" d="M253.2,71.2l-18.5,0.9c-1,0-1.9-0.8-2-1.8l0,0c0-1,0.8-1.9,1.8-2l18.5-0.9c1,0,1.9,0.8,2,1.8l0,0
										C255,70.2,254.2,71.1,253.2,71.2z"/>
								</defs>
								<clipPath id="SVGID_56_">
									<use xlink:href="#SVGID_55_"  style="overflow:visible;"/>
								</clipPath>
								<polygon class="st30" points="235.8,67.4 232.6,68.8 232.6,67.4 								"/>
							</g>
						</g>
					</g>
				</g>
			</g>
		</g>
		<path class="st3" d="M234.6,72.5c-0.6,0-1.2-0.2-1.6-0.6c-0.5-0.4-0.7-1-0.8-1.6s0.2-1.2,0.6-1.7c0.4-0.5,1-0.7,1.6-0.8l18.5-0.9
			c1.3-0.1,2.4,1,2.5,2.3c0,0.6-0.2,1.2-0.6,1.7s-1,0.7-1.6,0.8l-18.5,0.9C234.6,72.5,234.6,72.5,234.6,72.5z M253.1,67.9
			C253.1,67.9,253,67.9,253.1,67.9l-18.6,0.9c-0.4,0-0.7,0.2-1,0.4c-0.2,0.3-0.4,0.6-0.4,1s0.2,0.7,0.4,1c0.3,0.2,0.6,0.4,1,0.4
			l18.5-0.9c0.4,0,0.7-0.2,1-0.4c0.2-0.3,0.4-0.6,0.4-1C254.4,68.5,253.8,67.9,253.1,67.9z"/>
	</g>
	<g>
		<g>
			<g>
				<path id="SVGID_4_" class="st3" d="M242.4,79.1l-0.9-18.5c0-1,0.8-1.9,1.8-2l0,0c1,0,1.9,0.8,2,1.8l0.9,18.5c0,1-0.8,1.9-1.8,2
					l0,0C243.3,80.9,242.4,80.1,242.4,79.1z"/>
			</g>
			<g>
				<g>
					<g>
						<g>
							<g>
								<defs>
									<path id="SVGID_57_" d="M242.4,79.1l-0.9-18.5c0-1,0.8-1.9,1.8-2l0,0c1,0,1.9,0.8,2,1.8l0.9,18.5c0,1-0.8,1.9-1.8,2l0,0
										C243.3,80.9,242.4,80.1,242.4,79.1z"/>
								</defs>
								<clipPath id="SVGID_58_">
									<use xlink:href="#SVGID_57_"  style="overflow:visible;"/>
								</clipPath>
								<polygon class="st31" points="241.5,76.9 243.2,80.9 241.5,80.9 								"/>
							</g>
						</g>
					</g>
				</g>
			</g>
			<g>
				<g>
					<g>
						<g>
							<g>
								<defs>
									<path id="SVGID_59_" d="M242.4,79.1l-0.9-18.5c0-1,0.8-1.9,1.8-2l0,0c1,0,1.9,0.8,2,1.8l0.9,18.5c0,1-0.8,1.9-1.8,2l0,0
										C243.3,80.9,242.4,80.1,242.4,79.1z"/>
								</defs>
								<clipPath id="SVGID_60_">
									<use xlink:href="#SVGID_59_"  style="overflow:visible;"/>
								</clipPath>
								<polygon class="st32" points="241.5,75.9 243.7,80.9 243.2,80.9 241.5,76.9 								"/>
							</g>
						</g>
					</g>
				</g>
			</g>
			<g>
				<g>
					<g>
						<g>
							<g>
								<defs>
									<path id="SVGID_61_" d="M242.4,79.1l-0.9-18.5c0-1,0.8-1.9,1.8-2l0,0c1,0,1.9,0.8,2,1.8l0.9,18.5c0,1-0.8,1.9-1.8,2l0,0
										C243.3,80.9,242.4,80.1,242.4,79.1z"/>
								</defs>
								<clipPath id="SVGID_62_">
									<use xlink:href="#SVGID_61_"  style="overflow:visible;"/>
								</clipPath>
								<polygon class="st33" points="241.5,74.8 244.1,80.9 243.7,80.9 241.5,75.9 								"/>
							</g>
						</g>
					</g>
				</g>
			</g>
			<g>
				<g>
					<g>
						<g>
							<g>
								<defs>
									<path id="SVGID_63_" d="M242.4,79.1l-0.9-18.5c0-1,0.8-1.9,1.8-2l0,0c1,0,1.9,0.8,2,1.8l0.9,18.5c0,1-0.8,1.9-1.8,2l0,0
										C243.3,80.9,242.4,80.1,242.4,79.1z"/>
								</defs>
								<clipPath id="SVGID_64_">
									<use xlink:href="#SVGID_63_"  style="overflow:visible;"/>
								</clipPath>
								<polygon class="st34" points="241.5,73.8 244.6,80.9 244.1,80.9 241.5,74.8 								"/>
							</g>
						</g>
					</g>
				</g>
			</g>
			<g>
				<g>
					<g>
						<g>
							<g>
								<defs>
									<path id="SVGID_65_" d="M242.4,79.1l-0.9-18.5c0-1,0.8-1.9,1.8-2l0,0c1,0,1.9,0.8,2,1.8l0.9,18.5c0,1-0.8,1.9-1.8,2l0,0
										C243.3,80.9,242.4,80.1,242.4,79.1z"/>
								</defs>
								<clipPath id="SVGID_66_">
									<use xlink:href="#SVGID_65_"  style="overflow:visible;"/>
								</clipPath>
								<polygon class="st35" points="241.5,72.7 245,80.9 244.6,80.9 241.5,73.8 								"/>
							</g>
						</g>
					</g>
				</g>
			</g>
			<g>
				<g>
					<g>
						<g>
							<g>
								<defs>
									<path id="SVGID_67_" d="M242.4,79.1l-0.9-18.5c0-1,0.8-1.9,1.8-2l0,0c1,0,1.9,0.8,2,1.8l0.9,18.5c0,1-0.8,1.9-1.8,2l0,0
										C243.3,80.9,242.4,80.1,242.4,79.1z"/>
								</defs>
								<clipPath id="SVGID_68_">
									<use xlink:href="#SVGID_67_"  style="overflow:visible;"/>
								</clipPath>
								<polygon class="st36" points="241.5,71.7 245.5,80.9 245,80.9 241.5,72.7 								"/>
							</g>
						</g>
					</g>
				</g>
			</g>
			<g>
				<g>
					<g>
						<g>
							<g>
								<defs>
									<path id="SVGID_69_" d="M242.4,79.1l-0.9-18.5c0-1,0.8-1.9,1.8-2l0,0c1,0,1.9,0.8,2,1.8l0.9,18.5c0,1-0.8,1.9-1.8,2l0,0
										C243.3,80.9,242.4,80.1,242.4,79.1z"/>
								</defs>
								<clipPath id="SVGID_70_">
									<use xlink:href="#SVGID_69_"  style="overflow:visible;"/>
								</clipPath>
								<polygon class="st37" points="241.5,70.7 245.9,80.9 245.5,80.9 241.5,71.7 								"/>
							</g>
						</g>
					</g>
				</g>
			</g>
			<g>
				<g>
					<g>
						<g>
							<g>
								<defs>
									<path id="SVGID_71_" d="M242.4,79.1l-0.9-18.5c0-1,0.8-1.9,1.8-2l0,0c1,0,1.9,0.8,2,1.8l0.9,18.5c0,1-0.8,1.9-1.8,2l0,0
										C243.3,80.9,242.4,80.1,242.4,79.1z"/>
								</defs>
								<clipPath id="SVGID_72_">
									<use xlink:href="#SVGID_71_"  style="overflow:visible;"/>
								</clipPath>
								<polygon class="st38" points="241.5,69.6 246.2,80.4 246.2,80.9 245.9,80.9 241.5,70.7 								"/>
							</g>
						</g>
					</g>
				</g>
			</g>
			<g>
				<g>
					<g>
						<g>
							<g>
								<defs>
									<path id="SVGID_73_" d="M242.4,79.1l-0.9-18.5c0-1,0.8-1.9,1.8-2l0,0c1,0,1.9,0.8,2,1.8l0.9,18.5c0,1-0.8,1.9-1.8,2l0,0
										C243.3,80.9,242.4,80.1,242.4,79.1z"/>
								</defs>
								<clipPath id="SVGID_74_">
									<use xlink:href="#SVGID_73_"  style="overflow:visible;"/>
								</clipPath>
								<polygon class="st39" points="241.5,68.6 246.2,79.4 246.2,80.4 241.5,69.6 								"/>
							</g>
						</g>
					</g>
				</g>
			</g>
			<g>
				<g>
					<g>
						<g>
							<g>
								<defs>
									<path id="SVGID_75_" d="M242.4,79.1l-0.9-18.5c0-1,0.8-1.9,1.8-2l0,0c1,0,1.9,0.8,2,1.8l0.9,18.5c0,1-0.8,1.9-1.8,2l0,0
										C243.3,80.9,242.4,80.1,242.4,79.1z"/>
								</defs>
								<clipPath id="SVGID_76_">
									<use xlink:href="#SVGID_75_"  style="overflow:visible;"/>
								</clipPath>
								<polygon class="st40" points="241.5,67.6 246.2,78.3 246.2,79.4 241.5,68.6 								"/>
							</g>
						</g>
					</g>
				</g>
			</g>
			<g>
				<g>
					<g>
						<g>
							<g>
								<defs>
									<path id="SVGID_77_" d="M242.4,79.1l-0.9-18.5c0-1,0.8-1.9,1.8-2l0,0c1,0,1.9,0.8,2,1.8l0.9,18.5c0,1-0.8,1.9-1.8,2l0,0
										C243.3,80.9,242.4,80.1,242.4,79.1z"/>
								</defs>
								<clipPath id="SVGID_78_">
									<use xlink:href="#SVGID_77_"  style="overflow:visible;"/>
								</clipPath>
								<polygon class="st41" points="241.5,66.5 246.2,77.3 246.2,78.3 241.5,67.6 								"/>
							</g>
						</g>
					</g>
				</g>
			</g>
			<g>
				<g>
					<g>
						<g>
							<g>
								<defs>
									<path id="SVGID_79_" d="M242.4,79.1l-0.9-18.5c0-1,0.8-1.9,1.8-2l0,0c1,0,1.9,0.8,2,1.8l0.9,18.5c0,1-0.8,1.9-1.8,2l0,0
										C243.3,80.9,242.4,80.1,242.4,79.1z"/>
								</defs>
								<clipPath id="SVGID_80_">
									<use xlink:href="#SVGID_79_"  style="overflow:visible;"/>
								</clipPath>
								<polygon class="st42" points="241.5,65.5 246.2,76.3 246.2,77.3 241.5,66.5 								"/>
							</g>
						</g>
					</g>
				</g>
			</g>
			<g>
				<g>
					<g>
						<g>
							<g>
								<defs>
									<path id="SVGID_81_" d="M242.4,79.1l-0.9-18.5c0-1,0.8-1.9,1.8-2l0,0c1,0,1.9,0.8,2,1.8l0.9,18.5c0,1-0.8,1.9-1.8,2l0,0
										C243.3,80.9,242.4,80.1,242.4,79.1z"/>
								</defs>
								<clipPath id="SVGID_82_">
									<use xlink:href="#SVGID_81_"  style="overflow:visible;"/>
								</clipPath>
								<polygon class="st43" points="241.5,64.4 246.2,75.2 246.2,76.3 241.5,65.5 								"/>
							</g>
						</g>
					</g>
				</g>
			</g>
			<g>
				<g>
					<g>
						<g>
							<g>
								<defs>
									<path id="SVGID_83_" d="M242.4,79.1l-0.9-18.5c0-1,0.8-1.9,1.8-2l0,0c1,0,1.9,0.8,2,1.8l0.9,18.5c0,1-0.8,1.9-1.8,2l0,0
										C243.3,80.9,242.4,80.1,242.4,79.1z"/>
								</defs>
								<clipPath id="SVGID_84_">
									<use xlink:href="#SVGID_83_"  style="overflow:visible;"/>
								</clipPath>
								<polygon class="st44" points="241.5,63.4 246.2,74.2 246.2,75.2 241.5,64.4 								"/>
							</g>
						</g>
					</g>
				</g>
			</g>
			<g>
				<g>
					<g>
						<g>
							<g>
								<defs>
									<path id="SVGID_85_" d="M242.4,79.1l-0.9-18.5c0-1,0.8-1.9,1.8-2l0,0c1,0,1.9,0.8,2,1.8l0.9,18.5c0,1-0.8,1.9-1.8,2l0,0
										C243.3,80.9,242.4,80.1,242.4,79.1z"/>
								</defs>
								<clipPath id="SVGID_86_">
									<use xlink:href="#SVGID_85_"  style="overflow:visible;"/>
								</clipPath>
								<polygon class="st45" points="241.5,62.4 246.2,73.2 246.2,74.2 241.5,63.4 								"/>
							</g>
						</g>
					</g>
				</g>
			</g>
			<g>
				<g>
					<g>
						<g>
							<g>
								<defs>
									<path id="SVGID_87_" d="M242.4,79.1l-0.9-18.5c0-1,0.8-1.9,1.8-2l0,0c1,0,1.9,0.8,2,1.8l0.9,18.5c0,1-0.8,1.9-1.8,2l0,0
										C243.3,80.9,242.4,80.1,242.4,79.1z"/>
								</defs>
								<clipPath id="SVGID_88_">
									<use xlink:href="#SVGID_87_"  style="overflow:visible;"/>
								</clipPath>
								<polygon class="st46" points="241.5,61.3 246.2,72.1 246.2,73.2 241.5,62.4 								"/>
							</g>
						</g>
					</g>
				</g>
			</g>
			<g>
				<g>
					<g>
						<g>
							<g>
								<defs>
									<path id="SVGID_89_" d="M242.4,79.1l-0.9-18.5c0-1,0.8-1.9,1.8-2l0,0c1,0,1.9,0.8,2,1.8l0.9,18.5c0,1-0.8,1.9-1.8,2l0,0
										C243.3,80.9,242.4,80.1,242.4,79.1z"/>
								</defs>
								<clipPath id="SVGID_90_">
									<use xlink:href="#SVGID_89_"  style="overflow:visible;"/>
								</clipPath>
								<polygon class="st47" points="241.5,60.3 246.2,71.1 246.2,72.1 241.5,61.3 								"/>
							</g>
						</g>
					</g>
				</g>
			</g>
			<g>
				<g>
					<g>
						<g>
							<g>
								<defs>
									<path id="SVGID_91_" d="M242.4,79.1l-0.9-18.5c0-1,0.8-1.9,1.8-2l0,0c1,0,1.9,0.8,2,1.8l0.9,18.5c0,1-0.8,1.9-1.8,2l0,0
										C243.3,80.9,242.4,80.1,242.4,79.1z"/>
								</defs>
								<clipPath id="SVGID_92_">
									<use xlink:href="#SVGID_91_"  style="overflow:visible;"/>
								</clipPath>
								<polygon class="st48" points="241.5,59.3 246.2,70 246.2,71.1 241.5,60.3 								"/>
							</g>
						</g>
					</g>
				</g>
			</g>
			<g>
				<g>
					<g>
						<g>
							<g>
								<defs>
									<path id="SVGID_93_" d="M242.4,79.1l-0.9-18.5c0-1,0.8-1.9,1.8-2l0,0c1,0,1.9,0.8,2,1.8l0.9,18.5c0,1-0.8,1.9-1.8,2l0,0
										C243.3,80.9,242.4,80.1,242.4,79.1z"/>
								</defs>
								<clipPath id="SVGID_94_">
									<use xlink:href="#SVGID_93_"  style="overflow:visible;"/>
								</clipPath>
								<polygon class="st49" points="241.6,58.5 246.2,69 246.2,70 241.5,59.3 241.5,58.5 								"/>
							</g>
						</g>
					</g>
				</g>
			</g>
			<g>
				<g>
					<g>
						<g>
							<g>
								<defs>
									<path id="SVGID_95_" d="M242.4,79.1l-0.9-18.5c0-1,0.8-1.9,1.8-2l0,0c1,0,1.9,0.8,2,1.8l0.9,18.5c0,1-0.8,1.9-1.8,2l0,0
										C243.3,80.9,242.4,80.1,242.4,79.1z"/>
								</defs>
								<clipPath id="SVGID_96_">
									<use xlink:href="#SVGID_95_"  style="overflow:visible;"/>
								</clipPath>
								<polygon class="st50" points="242.1,58.5 246.2,68 246.2,69 241.6,58.5 								"/>
							</g>
						</g>
					</g>
				</g>
			</g>
			<g>
				<g>
					<g>
						<g>
							<g>
								<defs>
									<path id="SVGID_97_" d="M242.4,79.1l-0.9-18.5c0-1,0.8-1.9,1.8-2l0,0c1,0,1.9,0.8,2,1.8l0.9,18.5c0,1-0.8,1.9-1.8,2l0,0
										C243.3,80.9,242.4,80.1,242.4,79.1z"/>
								</defs>
								<clipPath id="SVGID_98_">
									<use xlink:href="#SVGID_97_"  style="overflow:visible;"/>
								</clipPath>
								<polygon class="st51" points="242.5,58.5 246.2,66.9 246.2,68 242.1,58.5 								"/>
							</g>
						</g>
					</g>
				</g>
			</g>
			<g>
				<g>
					<g>
						<g>
							<g>
								<defs>
									<path id="SVGID_99_" d="M242.4,79.1l-0.9-18.5c0-1,0.8-1.9,1.8-2l0,0c1,0,1.9,0.8,2,1.8l0.9,18.5c0,1-0.8,1.9-1.8,2l0,0
										C243.3,80.9,242.4,80.1,242.4,79.1z"/>
								</defs>
								<clipPath id="SVGID_100_">
									<use xlink:href="#SVGID_99_"  style="overflow:visible;"/>
								</clipPath>
								<polygon class="st52" points="243,58.5 246.2,65.9 246.2,66.9 242.5,58.5 								"/>
							</g>
						</g>
					</g>
				</g>
			</g>
			<g>
				<g>
					<g>
						<g>
							<g>
								<defs>
									<path id="SVGID_101_" d="M242.4,79.1l-0.9-18.5c0-1,0.8-1.9,1.8-2l0,0c1,0,1.9,0.8,2,1.8l0.9,18.5c0,1-0.8,1.9-1.8,2l0,0
										C243.3,80.9,242.4,80.1,242.4,79.1z"/>
								</defs>
								<clipPath id="SVGID_102_">
									<use xlink:href="#SVGID_101_"  style="overflow:visible;"/>
								</clipPath>
								<polygon class="st53" points="243.4,58.5 246.2,64.9 246.2,65.9 243,58.5 								"/>
							</g>
						</g>
					</g>
				</g>
			</g>
			<g>
				<g>
					<g>
						<g>
							<g>
								<defs>
									<path id="SVGID_103_" d="M242.4,79.1l-0.9-18.5c0-1,0.8-1.9,1.8-2l0,0c1,0,1.9,0.8,2,1.8l0.9,18.5c0,1-0.8,1.9-1.8,2l0,0
										C243.3,80.9,242.4,80.1,242.4,79.1z"/>
								</defs>
								<clipPath id="SVGID_104_">
									<use xlink:href="#SVGID_103_"  style="overflow:visible;"/>
								</clipPath>
								<polygon class="st54" points="243.9,58.5 246.2,63.8 246.2,64.9 243.4,58.5 								"/>
							</g>
						</g>
					</g>
				</g>
			</g>
			<g>
				<g>
					<g>
						<g>
							<g>
								<defs>
									<path id="SVGID_105_" d="M242.4,79.1l-0.9-18.5c0-1,0.8-1.9,1.8-2l0,0c1,0,1.9,0.8,2,1.8l0.9,18.5c0,1-0.8,1.9-1.8,2l0,0
										C243.3,80.9,242.4,80.1,242.4,79.1z"/>
								</defs>
								<clipPath id="SVGID_106_">
									<use xlink:href="#SVGID_105_"  style="overflow:visible;"/>
								</clipPath>
								<polygon class="st55" points="244.3,58.5 246.2,62.8 246.2,63.8 243.9,58.5 								"/>
							</g>
						</g>
					</g>
				</g>
			</g>
			<g>
				<g>
					<g>
						<g>
							<g>
								<defs>
									<path id="SVGID_107_" d="M242.4,79.1l-0.9-18.5c0-1,0.8-1.9,1.8-2l0,0c1,0,1.9,0.8,2,1.8l0.9,18.5c0,1-0.8,1.9-1.8,2l0,0
										C243.3,80.9,242.4,80.1,242.4,79.1z"/>
								</defs>
								<clipPath id="SVGID_108_">
									<use xlink:href="#SVGID_107_"  style="overflow:visible;"/>
								</clipPath>
								<polygon class="st56" points="244.8,58.5 246.2,61.7 246.2,62.8 244.3,58.5 								"/>
							</g>
						</g>
					</g>
				</g>
			</g>
			<g>
				<g>
					<g>
						<g>
							<g>
								<defs>
									<path id="SVGID_109_" d="M242.4,79.1l-0.9-18.5c0-1,0.8-1.9,1.8-2l0,0c1,0,1.9,0.8,2,1.8l0.9,18.5c0,1-0.8,1.9-1.8,2l0,0
										C243.3,80.9,242.4,80.1,242.4,79.1z"/>
								</defs>
								<clipPath id="SVGID_110_">
									<use xlink:href="#SVGID_109_"  style="overflow:visible;"/>
								</clipPath>
								<polygon class="st57" points="246.2,61.7 244.8,58.5 246.2,58.5 								"/>
							</g>
						</g>
					</g>
				</g>
			</g>
		</g>
		<path class="st3" d="M244.2,81.4c-0.6,0-1.2-0.2-1.6-0.6c-0.5-0.4-0.7-1-0.8-1.6l-0.9-18.5c-0.1-1.3,1-2.4,2.3-2.5
			c0.6,0,1.2,0.2,1.7,0.6s0.7,1,0.8,1.6l0.9,18.5c0,0.6-0.2,1.2-0.6,1.7c-0.4,0.5-1,0.7-1.6,0.8C244.3,81.4,244.3,81.4,244.2,81.4z
			 M243.4,59.1C243.4,59.1,243.3,59.1,243.4,59.1c-0.8,0-1.4,0.7-1.4,1.4l0.9,18.5c0,0.4,0.2,0.7,0.4,1c0.3,0.2,0.6,0.4,1,0.4
			s0.7-0.2,1-0.4s0.4-0.6,0.4-1l-0.9-18.5c0-0.4-0.2-0.7-0.4-1C244.1,59.2,243.7,59.1,243.4,59.1z"/>
	</g>
</g>
<g class="st58">
	<path class="st1" d="M494.3,290.5c4.2,0,7.6,3.4,7.6,7.6s-3.4,7.6-7.6,7.6s-7.6-3.4-7.6-7.6S490.1,290.5,494.3,290.5 M494.3,287.5
		c-5.9,0-10.6,4.8-10.6,10.6s4.8,10.6,10.6,10.6s10.6-4.8,10.6-10.6S500.2,287.5,494.3,287.5L494.3,287.5z"/>
</g>
<g class="st2">
	<path class="st1" d="M143,297.2l-18.5,0.9c-1,0-1.9-0.8-2-1.8l0,0c0-1,0.8-1.9,1.8-2l18.5-0.9c1,0,1.9,0.8,2,1.8l0,0
		C144.9,296.3,144.1,297.2,143,297.2z"/>
	<path class="st1" d="M132.2,305.1l-0.9-18.5c0-1,0.8-1.9,1.8-2l0,0c1,0,1.9,0.8,2,1.8l0.9,18.5c0,1-0.8,1.9-1.8,2l0,0
		C133.2,306.9,132.3,306.1,132.2,305.1z"/>
</g>
<g>
	<path class="st59" d="M527.2,185.7c-0.6-4.8-4-9.6-7-9.3c-2.9,0.3-4.7,5.4-4,10c0.6,3.8,0.3,12.7,0.5,16.6
		c0.5,7.4-5.1,9.4-12.1,9.6c-5.9,0.2-12-0.6-18-1.1c-1.9-0.1-4-0.8-6-1.1c-4.6-36.6-9-72.4-14.8-107.8c3.6-1.1,6.8-1.8,10.2-2.7
		c3.3-0.9,6.5-2.2,9.9-2.6c8.3-1.1,15.8,6.2,17.5,16.4c1.4,8,3.5,13.9,4.9,21.9c0.5,3.2,4,10.3,7.1,10.1c1.9-0.2,3.1-3.1,3.5-4.1
		c2.5-6.1,0.4-11.3-1.4-19.7c-2.8-13.6-2.8-12.6-4.7-19.1c-3.4-11.3-17.2-18.8-30.1-19.6c-3.9-0.2-10.8,3.1-20.3,5.6
		c-8,2.1-11.1,11.2-8.9,18.5c0.3,1.1,0,2.4,0.1,3.4c-0.2,0-0.3,0.1-0.5,0.2l3.5,22.2c1.1,5.3,2.3,10.9,3,16.3
		c1.9,13.1,2,14.3,3.7,27.6c0.3,2.5,1,9.8,1.6,15.4l2.5,22.6c0.3-0.2,0.7-0.4,1-0.6c3,6.4,7.2,9.8,13.7,10.3
		c6.1,0.5,12.2,1.7,18.3,2.4c15.7,1.7,25.6-4.3,27-20.6C527.9,200.8,528,191.6,527.2,185.7z"/>
	<path class="st59" d="M177,222.1c0.2,0.2,0.3,0.4,0.5,0.6c0.9-3.4,3.4-15.6,9.7-53c3-17.4,5.8-34.1,8.4-49.3
		c-1.1-7.4-3.4-9.7-11.1-10.7c-5.1-0.7-10.1-1.6-15.2-2.3c-12.2-1.7-27.8,9.2-36.3,22.8c-1.6,2.5-3.2,5.7-7.7,28
		c-8.1,40-5.9,45.5-4.1,48.7c7.2,13.2,23.7,17.3,26.3,17.9c8.1,1.9,15.5,0.5,17.9,0.6C169.8,225.5,173.8,224.9,177,222.1z
		 M142.9,213c-1.6-0.9-5.3-3.3-7.6-7.8c-2.3-4.4-2.1-8.7-1.9-10.9c0.9-12.5,4.2-22.7,6.1-31.7c3.9-18.3,2.8-19.4,5.1-29.5
		c1.8-7.9,9.3-13.6,18.1-13.9c3.6-0.1,6.9,1.5,10.4,2c3.1,0.4,6.2,0.4,9.6,0.9c-5.9,32.3-10.8,62.6-15.8,92.1
		C164.9,214.9,152.9,219.1,142.9,213z"/>
</g>
</svg>
