<?xml version="1.0" encoding="utf-8"?>
<!-- Generator: Adobe Illustrator 23.1.0, SVG Export Plug-In . SVG Version: 6.00 Build 0)  -->
<svg version="1.1" id="Layer_1" xmlns="http://www.w3.org/2000/svg" xmlns:xlink="http://www.w3.org/1999/xlink" x="0px" y="0px"
	 viewBox="0 0 657 389.2" style="enable-background:new 0 0 657 389.2;" xml:space="preserve">
<style type="text/css">
	.st0{fill:#F5F5F5;}
	.st1{fill:#FFC373;}
	.st2{fill:#FCA51C;}
	.st3{opacity:0.26;}
	.st4{fill:#FCB91C;}
	.st5{opacity:0.29;fill:#FCB91C;enable-background:new    ;}
	.st6{opacity:0.38;fill:#FFA8A8;enable-background:new    ;}
</style>
<path id="Rectangle_31" class="st0" d="M360.5,234.7h221c22.6,0,41,18.4,41,41l0,0c0,22.6-18.4,41-41,41h-221c-22.6,0-41-18.4-41-41
	l0,0C319.5,253.1,337.9,234.7,360.5,234.7z"/>
<path id="Rectangle_32" class="st0" d="M40.3,188.7h185c19.1,0,34.5,15.4,34.5,34.5l0,0c0,19.1-15.4,34.5-34.5,34.5h-185
	c-19.1,0-34.5-15.4-34.5-34.5l0,0C5.8,204.2,21.3,188.7,40.3,188.7z"/>
<path id="Rectangle_33" class="st0" d="M257.1,68.4h253c14.9,0,27,12.1,27,27l0,0c0,14.9-12.1,27-27,27h-253c-14.9,0-27-12.1-27-27
	l0,0C230.1,80.5,242.2,68.4,257.1,68.4z"/>
<path class="st1" d="M313,225.2c-6.9-6.7-14.9-11.4-22.9-14c1-4.9-1.1-10-5.1-12.2c-6-2.4-11,2.1-10.9,8c-5-2.3-10-1.7-15-2
	c-0.1-3.9-0.1-8.8-0.2-12.7c9.9-4.3,20.9-4.6,27.9-12.9c2-2.8,2-7.7-2.1-10.9c-2-1.1-4-2.2-6-1.3c-6,1.6-11,7.1-18,7.8
	c0.9-5.8,3.9-11.4,2.8-18.2c-1.1-3.9-6.1-6-10.1-5.2c-9,4.5-8.8,17.9-8.6,27.5c-9,1.6-18,2.4-27,2.4c-3,0-6,1-6.9,4.8
	c-0.9,2.9,0.1,5.7,2.2,7.6c2,1.9,4.1,2.9,6.1,2.9c8-0.9,16,0.3,23.9-2.3c0.1,3.9,0.1,7.8,0.2,11.7c-18.9,3.1-32.5,19.6-30.1,39.2
	c2.4,18.6,22.3,32.4,40,27.6c3,3.2,2.1,7.2,5,9.4c2,1.1,3,3.2,5,5.4c4,4.3,10.8,3.9,13.7-0.9c1.9-2.9,0.9-6-1.1-8.1
	c-3-3.3-7.9-6.7-7-10.6c0-1,2.9-2.8,3.9-4.7c1-0.9,2-0.8,2.9-1.8c5.9-7.5,9.8-15.1,11.7-24.9c0-4,0.9-6.9,1.9-9.8
	c9,2.8,19.9,11.8,18,22.6c-1.9,9.8-8.8,16.1-17.7,19.3c-4.9,1.6-6.8,8.4-2.9,12.8c2,1.2,4,2.4,5.9,2.5c3.9,1.4,6.9-3.4,10.8-3
	c0.3-0.6,0.7-1.3,1-1.9c8.8-4.2,15.7-12.5,17.7-22.3C325,245.3,321,233.9,313,225.2z M245,258.4c-5.9,0.7-10.9-2.6-14-7.6
	c-6.1-11.1,0.5-25.6,12.4-28c0.2,11.8,2.4,23.8,4.5,35.9C247,258.5,246,258.5,245,258.4z M262.7,251.6c-2.1-10.1-3.2-21.1-3.4-30.9
	c5,0.3,9,0.6,13.9,1C273.4,232.5,267.5,242,262.7,251.6z"/>
<path class="st2" d="M393.1,218.7"/>
<g class="st3">
	<path class="st4" d="M463.4,328c1.3,0,2.6,0.3,3.8,1c3.6,2.1,4.9,6.8,2.8,10.4c-1.4,2.4-4,3.8-6.6,3.8c-1.3,0-2.6-0.3-3.8-1
		c-3.6-2.1-4.9-6.8-2.8-10.4C458.2,329.4,460.8,328,463.4,328 M463.4,325L463.4,325c-3.8,0-7.3,2-9.2,5.3
		c-2.9,5.1-1.2,11.6,3.9,14.5c1.6,0.9,3.5,1.4,5.3,1.4c3.8,0,7.3-2,9.2-5.3c2.9-5.1,1.2-11.6-3.9-14.5
		C467.1,325.5,465.3,325,463.4,325L463.4,325z"/>
</g>
<path class="st5" d="M116.7,192.3l-7.4,0.3l-0.3-7.4c0-1-0.9-1.8-2-1.8c-1,0-1.8,0.9-1.8,2l0.3,7.4l-7.4,0.3c-1,0-1.8,0.9-1.8,2
	c0,1,0.9,1.8,2,1.8l7.4-0.3l0.3,7.4c0,1,0.9,1.8,2,1.8c1,0,1.8-0.9,1.8-2l-0.3-7.4l7.4-0.3c1,0,1.8-0.9,1.8-2
	C118.6,193,117.8,192.2,116.7,192.3z"/>
<path class="st6" d="M553,104.3l-7.4,0.3l-0.3-7.4c0-1-0.9-1.8-2-1.8c-1,0-1.8,0.9-1.8,2l0.3,7.4l-7.4,0.3c-1,0-1.8,0.9-1.8,2
	c0,1,0.9,1.8,2,1.8l7.4-0.3l0.3,7.4c0,1,0.9,1.8,2,1.8c1,0,1.8-0.9,1.8-2l-0.3-7.4l7.4-0.3c1,0,1.8-0.9,1.8-2
	C554.9,105,554,104.2,553,104.3z"/>
<path class="st2" d="M522.8,109.4c-8.9-41.8-60.3-70.6-101.1-77.4c-27-4.5-48.9,0-58.6,2.1c-30.9,6.8-51.3,20.9-55.9,24.2
	c-5.1,3.6-17.7,13.1-30.3,28.8c-5,6.3-11.2,15.1-17,26.5c-12.2,0-32.6,1.7-55.2,11.5c-12.4,5.4-32.5,14.2-48,35.6
	c-26.2,36.2-16.7,77.7-16,80.5c6,24.4,20.2,39.9,27.1,46.6c0.6,20.4,0.3,42,2.9,62.9c0.2,6,7,7.4,11.8,4.6
	c14.2-11.3,28.6-22,42-34.6c8,3.3,59.9,23.3,112.7-3.9c35-18.1,51.5-47.2,57.2-58.6c14.9,1,28.8-2.3,42.7-5.1
	c7.5,5,15.5,11,23.7,17.9c8.3,7,15.5,13.8,21.8,20.3c2.9,0.9,5-1.2,7.9-2.4c2.7-23.9,1.4-47.7,3-72.1c0.1-3.2,5.1-5.8,8.2-9.4
	c2.2-3.5,5.3-8.5,8.4-14.9c10.9-22.4,13.6-43.5,14.1-57.3C524.5,127.8,524.8,118.8,522.8,109.4z M368.5,274.3
	c-8.3,10.2-22.2,23.9-42.4,31.9c-12.5,5-24.6,6.6-30.3,7.4c-8.9,1.3-16.7,0.6-25.5,1c-8.8,0.4-18.6-3.4-27.4-3.9
	c-7.8-1.5-13.8-5.9-21.6-6.2c-12.6,8.6-24,19.4-36.5,28c-0.4-16.1-0.9-32-1.3-47.8c-0.1-2-1.1-3.9-3.1-5.9
	c-21.1-17.4-33-41.2-30.9-67.8c2.4-17.3,9.9-32.4,21.6-45.6c52.7-54.3,151.4-50.7,199.1,16.3c1,1.1,0,2,1,3.1
	C391.1,213.7,388.5,250.3,368.5,274.3z M504.7,170.2c-1.1,2.3-2.1,4.5-3.2,7.9c-5.4,13.5-14.6,23-23.9,34.1c0.2,1,0.2,2,0.1,3.1
	c-0.4,16.8-0.9,34.5-0.3,50.9c-6.8-4.8-12.6-9.8-18.4-15.9c-5.8-5-11.7-10.1-18.6-14.3c-14,3-28,7.4-41.9,6.6
	c4.3-22-1.4-44.9-13.3-65.1c-2-2.2-4-4.3-5-7.5c10.1,0.5,20.1,2,30.2,0.2c1.9,6.3,4.9,11.6,6.8,17.9c0.9,5.2,2.9,8.4,3.8,13.6
	c1,3.1,2.9,7.3,5.8,9.4c4,1.1,9,0.1,11.1-4c1-2.1,0.1-4.2,0.1-6.2c-7.7-18.8-14.4-38.8-21.2-58c-3.9-12.8-8.7-25.6-12.7-38.4
	c-2-4.3-4-9.6-5.9-13.9c-1-2.1,0-3.2-1-5.3c-3-5.3-9.1-7.3-13.3-2c-11.4,21.3-15.6,43.9-23.8,65.1c-24.1-19.7-53.6-31.9-84.1-33.5
	c10.9-23.6,32.3-42.9,58.9-54.7c43.1-18.6,92.7-19.7,133,6c16.1,11.2,28,23.3,35.6,40.8C512.1,126.5,511.3,149,504.7,170.2z
	 M375.4,154.3c5.2-13.2,9.3-27.6,14.6-41.3c3.9,13.8,9.8,27.6,14.7,41.4C394.6,154,385.5,153.7,375.4,154.3z"/>
<path class="st1" d="M438,201c-7.7-18.8-14.4-38.8-21.2-58c-3.9-12.8-8.7-25.6-12.7-38.4c-2-4.3-4-9.6-5.9-13.9c-1-2.1,0-3.2-1-5.3
	c-3-5.3-9.1-7.3-13.3-2c-11.4,21.3-15.6,43.9-23.8,65.1c3.2,2.6,6.6,5.8,10.1,9.4c4.1,4.3,7.4,8.4,10.2,12.2c4.5,0.5,9.5,0.7,15,1
	c5,0.2,10,0.1,15-0.8c1.9,6.3,4.9,11.6,6.8,17.9c0.9,5.2,2.9,8.4,3.8,13.6c1,3.1,2.9,7.3,5.8,9.4c4,1.1,9,0.1,11.1-4
	C438.9,205.1,438,203,438,201z M375.4,154.4c5.2-13.2,9.3-27.6,14.6-41.3c3.9,13.8,9.8,27.6,14.7,41.4
	C394.6,154.1,385.5,153.8,375.4,154.4z"/>
</svg>
